<?xml version="1.0" encoding="UTF-8" standalone="no"?>
<svg
   fill="currentColor"
   version="1.1"
   width="24"
   height="24"
   viewBox="0 0 24 24"
   id="svg1"
   sodipodi:docname="bright-mode.svg"
   inkscape:version="1.4.2 (ebf0e940d0, 2025-05-08)"
   xmlns:inkscape="http://www.inkscape.org/namespaces/inkscape"
   xmlns:sodipodi="http://sodipodi.sourceforge.net/DTD/sodipodi-0.dtd"
   xmlns="http://www.w3.org/2000/svg"
   xmlns:svg="http://www.w3.org/2000/svg">
  <defs
     id="defs1" />
  <sodipodi:namedview
     id="namedview1"
     pagecolor="#ffffff"
     bordercolor="#000000"
     borderopacity="0.25"
     inkscape:showpageshadow="2"
     inkscape:pageopacity="0.0"
     inkscape:pagecheckerboard="0"
     inkscape:deskcolor="#d1d1d1"
     inkscape:zoom="20.833333"
     inkscape:cx="11.928"
     inkscape:cy="12"
     inkscape:window-width="1366"
     inkscape:window-height="701"
     inkscape:window-x="0"
     inkscape:window-y="0"
     inkscape:window-maximized="1"
     inkscape:current-layer="svg1" />
  <path
     id="path1"
     style="fill:#000000;stroke-width:0.695433"
     d="M 11.726562 5.7695312 A 6.6719999 6.5040002 0 0 0 5.5703125 10.908203 A 6.6719999 6.5040002 0 0 0 10.675781 18.619141 L 10.791016 18.642578 A 6.6719999 6.5040002 0 0 0 18.632812 13.564453 A 6.6719999 6.5040002 0 0 0 13.458984 5.8964844 A 6.6719999 6.5040002 0 0 0 11.726562 5.7695312 z M 11.787109 6.8730469 A 4.704 5.3760004 0 0 1 13.007812 6.9765625 A 4.704 5.3760004 0 0 1 16.65625 13.314453 A 4.704 5.3760004 0 0 1 11.126953 17.511719 L 11.046875 17.492188 A 4.704 5.3760004 0 0 1 7.4472656 11.119141 A 4.704 5.3760004 0 0 1 11.787109 6.8730469 z " />
  <rect
     style="fill:#000000;stroke-width:0.558542"
     id="rect1"
     width="0.912"
     height="2.6400001"
     x="11.568001"
     y="-4.8479996"
     transform="scale(1,-1)" />
  <rect
     style="fill:#000000;stroke-width:0.58822"
     id="rect1-5"
     width="0.912"
     height="2.9280002"
     x="11.568"
     y="-4.5760002"
     transform="rotate(90)" />
  <rect
     style="fill:#000000;stroke-width:0.553442"
     id="rect1-2"
     width="0.912"
     height="2.592"
     x="11.16"
     y="19.552" />
  <rect
     style="fill:#000000;stroke-width:0.58822"
     id="rect1-5-7"
     width="0.912"
     height="2.9280002"
     x="11.664"
     y="-22.264"
     transform="rotate(90)" />
  <rect
     style="fill:#000000;stroke-width:0.558542"
     id="rect1-6"
     width="0.912"
     height="2.6400001"
     x="17.170757"
     y="8.3871622"
     transform="matrix(0.70710678,0.70710678,0.70710678,-0.70710678,0,0)" />
  <rect
     style="fill:#000000;stroke-width:0.558542"
     id="rect1-6-6"
     width="0.912"
     height="2.6400001"
     x="-0.21841209"
     y="-9.2619715"
     transform="matrix(0.70710678,-0.70710678,-0.70710678,-0.70710678,0,0)" />
  <rect
     style="fill:#000000;stroke-width:0.558542"
     id="rect1-6-6-9"
     width="0.912"
     height="2.6400001"
     x="-1.1631068"
     y="-27.844738"
     transform="matrix(0.70710678,-0.70710678,-0.70710678,-0.70710678,0,0)" />
  <rect
     style="fill:#000000;stroke-width:0.558542"
     id="rect1-6-3"
     width="0.912"
     height="2.6400001"
     x="16.10136"
     y="-10.648152"
     transform="matrix(0.70710678,0.70710678,0.70710678,-0.70710678,0,0)" />
</svg>
