<?xml version="1.0" encoding="UTF-8" standalone="no"?>
<!-- Created with Inkscape (http://www.inkscape.org/) -->

<svg
   version="1.1"
   id="svg1"
   width="35.200001"
   height="35.200001"
   viewBox="0 0 35.200001 35.200001"
   sodipodi:docname="logo_tmp.svg"
   inkscape:version="1.4.2 (ebf0e940d0, 2025-05-08)"
   xmlns:inkscape="http://www.inkscape.org/namespaces/inkscape"
   xmlns:sodipodi="http://sodipodi.sourceforge.net/DTD/sodipodi-0.dtd"
   xmlns="http://www.w3.org/2000/svg"
   xmlns:svg="http://www.w3.org/2000/svg">
  <defs
     id="defs1" />
  <sodipodi:namedview
     id="namedview1"
     pagecolor="#ffffff"
     bordercolor="#000000"
     borderopacity="0.25"
     inkscape:showpageshadow="2"
     inkscape:pageopacity="0.0"
     inkscape:pagecheckerboard="0"
     inkscape:deskcolor="#d1d1d1"
     inkscape:zoom="14.204545"
     inkscape:cx="17.5648"
     inkscape:cy="17.6"
     inkscape:window-width="1366"
     inkscape:window-height="701"
     inkscape:window-x="0"
     inkscape:window-y="0"
     inkscape:window-maximized="1"
     inkscape:current-layer="g1" />
  <g
     inkscape:groupmode="layer"
     inkscape:label="Image"
     id="g1">
    <path
       style="fill:#7c7a7a;stroke:none"
       d="M 16.96,2.8800001 10.24,9.9200002 7.8400002,12.48 l -0.16,5.44 -0.64,13.120001 c 1.8022784,1.220898 3.5568018,0.96 5.7599998,0.96 h 9.6 c 1.211087,0 4.31315,0.596792 4.960001,-0.746668 0.281479,-0.584612 -0.101453,-1.211138 -0.16,-1.813332 -0.172566,-1.774978 0,-3.655435 0,-5.44 V 16.32 c 0,-1.05988 0.256884,-2.504743 -0.05333,-3.52 C 26.800052,11.665615 25.455801,10.735801 24.640001,9.9200002 22.387378,7.6673781 19.677588,4.4533399 16.96,2.8800001 m -0.64,3.2 V 30.080001 H 14.08 V 16 c 0,-0.837967 0.474712,-4.006567 -0.64,-4.266667 C 11.741941,11.337119 12.16,14.834682 12.16,15.68 V 30.080001 H 9.9200002 L 9.6000002,17.92 9.7066671,12.8 11.52,10.56 16.32,6.0800001 m 2.56,0 4.16,4.1599999 2.133333,2.56 0.106668,5.44 V 30.080001 H 23.04 L 22.72,19.52 22.08,11.2 c -1.806439,1.074097 -1.28,3.233274 -1.28,5.12 V 30.080001 H 18.56 V 12.48 L 18.88,6.0800001 M 31.680001,25.280001 c 1.701196,-0.194422 2.148672,-2.742657 1.44,-4.160001 -0.554886,-1.109769 -1.902827,-2.11616 -2.773333,-2.986666 -0.461374,-0.461374 -1.564189,-2.347998 -2.346667,-1.386667 -0.595699,0.731856 0.354514,1.661643 0.8,2.133333 0.909904,0.963429 2.323691,1.905035 2.773332,3.2 0.325147,0.936419 0.106668,2.218736 0.106668,3.200001 m -28.4800009,1.28 c 0,-1.51491 -0.4338135,-3.801819 0.4266665,-5.120001 0.9702347,-1.486317 3.8299095,-2.934008 3.0933335,-4.8 -1.607085,0.46521 -2.6241632,2.086911 -3.84,3.2 C 2.4406139,20.242255 1.8539887,20.527154 1.6533333,21.12 1.4358251,21.762637 1.6,22.686382 1.6,23.360001 c 0,1.430971 0.079813,2.722226 1.6000001,3.2 z"
       id="path1" />
  </g>
</svg>
