<?xml version="1.0" encoding="UTF-8" standalone="no"?>
<svg
   width="1050"
   height="620"
   fill="none"
   version="1.1"
   id="svg3"
   sodipodi:docname="world-dark.svg"
   inkscape:version="1.4.2 (ebf0e940d0, 2025-05-08)"
   xmlns:inkscape="http://www.inkscape.org/namespaces/inkscape"
   xmlns:sodipodi="http://sodipodi.sourceforge.net/DTD/sodipodi-0.dtd"
   xmlns="http://www.w3.org/2000/svg"
   xmlns:svg="http://www.w3.org/2000/svg">
  <sodipodi:namedview
     id="namedview3"
     pagecolor="#ffffff"
     bordercolor="#000000"
     borderopacity="0.25"
     inkscape:showpageshadow="2"
     inkscape:pageopacity="0.0"
     inkscape:pagecheckerboard="0"
     inkscape:deskcolor="#d1d1d1"
     inkscape:zoom="0.41428571"
     inkscape:cx="525.00001"
     inkscape:cy="308.96552"
     inkscape:window-width="1366"
     inkscape:window-height="701"
     inkscape:window-x="0"
     inkscape:window-y="0"
     inkscape:window-maximized="1"
     inkscape:current-layer="svg3" />
  <g
     opacity=".15"
     clip-path="url(#a)"
     id="g2"
     style="display:inline;opacity:0.188;mix-blend-mode:normal;filter:url(#filter1)">
    <path
       d="m 294.93,64.555 c -6.974,-0.31 -7.284,-5.89 -7.284,-5.89 -4.262,0.31 -5.424,-1.472 -2.79,-4.766 2.635,-3.294 -2.17,-1.977 -4.146,-3.488 -1.976,-1.434 -3.099,-5.425 0.814,-6.549 3.991,-1.162 6.587,-1.937 7.129,-3.913 0.465,-1.977 8.408,-0.349 10.849,-3.643 2.518,-3.255 -5.889,-3.448 -6.083,-6.045 -0.155,-2.635 12.399,-7.905 15.033,-8.718 2.635,-0.814 3.139,-4.922 9.725,-7.75 6.587,-2.752 14.53,-0.775 17.513,0.193 2.984,0.969 2.829,-1.162 3.294,-2.635 0.503,-1.472 9.105,-0.775 9.763,-2.131 0.659,-1.318 5.618,-3.759 15.692,-3.759 10.074,0 16.002,-4.766 30.532,-5.425 a 34.325,34.325 0 0 1 23.789,8.215 c 0,0 6.587,-1.007 9.57,0 2.984,0.969 -2.789,4.921 -2.131,8.215 0.659,3.255 12.012,0 16.661,-2.48 4.649,-2.48 11.74,2.635 13.057,4.108 1.317,1.472 -0.504,2.325 -6.974,7.556 -6.432,5.231 -15.808,13.64 -17.474,16.275 -1.666,2.596 0.31,3.914 3.487,5.89 3.1,1.938 4.456,7.363 4.107,9.029 -0.349,1.627 -8.602,0.31 -8.602,1.821 0,1.473 4.65,1.938 4.805,2.945 0.155,0.969 -0.155,1.318 -1.472,5.58 -1.318,4.263 0.774,2.131 2.131,4.418 1.317,2.325 -6.936,9.028 -8.912,12.98 -1.976,3.953 0.814,6.395 3.1,11.16 2.324,4.767 -4.572,8.371 -9.067,12.982 -4.455,4.611 -11.391,3.604 -16.66,5.27 -5.27,1.627 -7.091,3.604 -10.229,9.494 -3.138,5.928 -14.878,7.246 -18.482,9.028 -3.642,1.822 -3.332,6.084 -2.169,8.719 1.162,2.635 -1.821,1.821 -4.65,3.449 -2.789,1.627 -2.131,11.509 -3.603,14.105 -1.472,2.635 -6.432,2.17 -7.09,0 -0.659,-2.131 -3.294,-2.79 -6.587,-3.759 -3.332,-1.007 -15.033,-21.196 -16.699,-27.9 -1.667,-6.742 2.131,-11.354 5.036,-15.616 2.868,-4.263 1.55,-5.58 -1.394,-2.945 -2.984,2.635 -8.253,0.155 -8.137,-3.294 0.194,-3.449 5.967,-5.425 8.602,-7.052 2.673,-1.666 -0.775,-3.488 -6.083,-6.084 -5.309,-2.635 -2.635,-1.627 -3.139,-7.207 -0.504,-5.58 -6.974,-15.617 -14.374,-20.383 -4.805,-3.1 -9.028,-2.054 -13.29,-1.008 -2.364,0.582 -4.727,1.163 -7.168,1.008 z m -39.636,-2.131 c -4.146,-1.628 -10.423,-3.565 -14.026,-1.124 -3.642,2.441 -10.423,0.155 -11.391,-2.48 -1.008,-2.635 2.634,-1.976 2.131,-5.929 -0.504,-3.913 1.317,-4.262 1.821,-5.735 0.503,-1.472 -2.829,-1.627 -6.975,0 -4.107,1.628 -9.686,-2.945 -10.693,-6.239 -1.008,-3.293 -8.757,-7.207 -8.757,-9.687 0,-2.48 6.936,-10.656 10.578,-10.656 3.603,0 6.586,4.572 8.911,6.587 2.325,1.938 5.425,4.263 6.936,3.255 1.472,-1.007 -1.976,-0.155 -4.96,-4.456 -2.983,-4.262 -8.253,-6.394 -6.277,-8.525 1.976,-2.131 10.423,-5.076 15.189,-4.921 4.804,0.155 6.276,4.262 9.415,0 3.138,-4.263 12.708,-6.394 34.677,-6.394 21.968,0 30.376,2.131 29.059,6.2 -1.317,4.146 -10.229,6.277 -12.554,9.688 -2.324,3.487 -7.245,6.432 -11.546,9.88 a 28.434,28.434 0 0 1 -11.585,5.736 c -2.324,0.348 -1.162,5.928 -6.083,10.85 -4.959,4.921 -4.959,6.394 -6.974,11.315 0,0 -2.789,4.262 -6.896,2.635 z M 199.926,31.54 c 3.294,-1.279 5.308,1.86 3.642,2.906 -1.666,1.047 -3.642,1.047 -3.642,1.047 0,0 -3.293,-2.636 0,-3.953 z m 5.037,10.462 c 3.061,-1.278 6.781,0.66 8.602,4.108 1.86,3.487 4.998,3.371 4.998,5.038 0,1.627 -2.906,2.44 -4.688,1.82 -1.783,-0.658 -6.587,-4.533 -7.866,-5.58 -1.317,-1.007 -2.363,-2.44 -2.363,-2.44 0,0 -1.666,-1.628 1.356,-2.946 z m -20.767,-4.533 c 4.339,0.581 6.586,2.247 9.182,4.146 2.596,1.86 7.594,4.766 7.246,6.471 -0.388,1.705 -5.347,2.287 -7.594,1.55 -2.248,-0.775 -2.093,-1.201 -5.115,-3.449 a 28.962,28.962 0 0 1 -6.393,-6.354 c 0,0 -1.627,-2.945 2.712,-2.325 l -0.038,-0.04 z m 30.802,18.561 c 5.967,2.248 14.917,11.47 18.637,11.044 3.758,-0.388 8.408,0.736 9.919,-0.775 1.472,-1.434 7.168,-2.403 10.112,-1.163 2.945,1.24 5.928,4.612 4.727,6.665 -1.162,2.054 -6.083,3.294 -17.087,3.255 -11.042,-0.077 -16.273,-0.62 -18.326,-2.131 -2.015,-1.55 -3.1,-7.75 -6.316,-10.424 -3.254,-2.712 -8.485,-3.642 -8.717,-5.037 0,0 1.085,-3.681 7.051,-1.434 z m -0.077,9.998 c 3.642,1.24 4.262,5.114 2.983,6.316 -1.317,1.162 -3.719,2.48 -6.199,1.007 -2.402,-1.472 -3.41,-2.79 -2.983,-4.611 0,0 2.596,-3.953 6.199,-2.712 z m -25.068,-6.976 c 2.092,1.28 2.905,1.202 5.579,0.62 2.673,-0.58 8.136,-0.774 8.718,0.388 0.581,1.201 1.937,10.385 -1.473,10.966 -3.487,0.582 -7.594,0.117 -8.136,-2.286 -0.465,-2.402 -3.604,-2.48 -4.921,-4.417 -1.279,-1.938 -3.177,-2.403 -4.262,-3.372 -1.046,-0.93 -1.86,-1.705 -1.124,-1.937 0,0 3.565,-1.279 5.619,0 z m -32.43,-11.624 c 1.859,0.542 1.859,0.038 2.014,-1.28 0.155,-1.278 2.868,-6.316 5.735,-5.076 2.828,1.202 6.199,3.643 5.618,6.317 -0.581,2.673 -5.889,7.44 -8.098,7.362 -2.17,-0.077 -3.332,-1.588 -4.727,-2.596 -1.356,-0.969 -4.766,-2.984 -4.301,-3.41 0,0 1.86,-1.938 3.759,-1.356 v 0.038 z m -24.022,10.075 c 3.603,-2.48 12.592,-5.58 14.723,-5.154 2.092,0.387 3.254,3.022 2.828,4.766 -0.387,1.705 1.705,3.72 3.875,3.1 2.092,-0.659 3.719,-0.388 4.765,1.705 1.085,2.093 6.975,4.844 8.176,2.945 1.24,-1.937 -0.388,-3.216 0,-4.921 0.387,-1.705 1.704,-4.844 3.99,-2.829 2.325,2.015 2.209,3.991 4.107,4.379 1.86,0.387 5.115,0.077 5.425,1.86 0.271,1.782 0.775,3.836 2.673,4.146 1.821,0.31 2.48,2.519 2.015,3.1 -0.504,0.543 -4.184,1.201 -8.33,1.201 -4.185,0 -6.045,-0.969 -9.222,0.891 -3.177,1.86 -6.393,5.93 -10.538,3.023 -4.146,-2.945 -5.425,-4.146 -9.764,-5.193 a 21.503,21.503 0 0 1 -9.415,-4.262 c -1.434,-1.55 -8.912,-1.589 -9.028,-4.34 0,0 0.155,-1.899 3.758,-4.379 z m 65.092,20.305 c 3.293,-1.163 6.199,-1.163 7.361,2.48 1.163,3.68 2.325,5.308 2.829,7.594 0.465,2.248 -3.061,7.596 -4.495,7.944 -1.433,0.31 -6.664,-1.627 -8.136,-3.565 -1.434,-1.937 -9.222,-5.851 -5.076,-7.633 4.107,-1.783 8.989,0.31 7.517,-0.97 -1.434,-1.317 -4.417,0.62 -4.068,-2.13 0,0 0.774,-2.597 4.068,-3.72 z m 184.738,339.295 c 3.603,2.596 8.136,3.41 8.795,7.75 0.659,4.417 -3.1,12.826 -7.362,17.708 -4.223,4.883 -6.974,9.92 -6.509,15.113 0.504,5.154 -1.782,22.359 -10.577,25.614 -8.834,3.255 -16.971,9.106 -16.971,12.787 0,3.759 -0.155,7.479 -4.417,15.112 -4.262,7.634 -11.585,19.647 -14.994,19.802 -1.124,0.077 -2.248,-0.117 -3.255,-0.31 -2.131,-0.388 -3.797,-0.775 -3.448,1.162 0.503,2.713 5.23,7.44 0.813,11.625 -4.417,4.263 -14.684,3.449 -14.839,5.232 -0.155,1.782 2.441,4.029 -0.969,6.006 -3.448,1.937 -6.703,-0.194 -5.734,2.596 0.969,2.713 3.913,3.875 1.782,7.13 -2.092,3.216 -4.882,5.658 -5.037,7.75 -0.155,2.131 -5.424,1.317 -4.262,5.541 1.163,4.224 5.89,6.006 2.325,11.044 -3.603,5.037 -9.299,9.416 -8.02,13.795 1.317,4.379 11.081,13.64 10.112,15.732 -0.968,2.093 -7.671,2.442 -14.335,0 -6.703,-2.441 -12.244,-6.509 -12.244,-10.694 0,-4.263 -0.659,-6.665 -1.937,-10.579 -1.356,-3.875 -2.79,-11.354 0,-16.663 2.712,-5.425 3.564,-6.355 4.223,-9.765 0.62,-3.41 -0.814,-4.727 -0.659,-9.416 0.155,-4.689 -0.968,-13.485 2.131,-20.925 3.1,-7.479 5.851,-14.105 6.2,-20.305 0.31,-6.161 4.262,-48.011 1.627,-51.925 -2.635,-3.875 -17.436,-10.075 -18.792,-16.856 -1.278,-6.82 -2.596,-15.578 -6.005,-21.894 -3.448,-6.355 -5.889,-11.237 -5.579,-13.795 0.348,-2.596 0.348,-1.472 0.658,-5.696 0.349,-4.224 2.325,-12.168 5.735,-17.67 3.409,-5.541 5.54,-5.348 3.409,-10.385 -2.131,-5.038 -3.255,-10.54 -5.386,-8.758 -2.131,1.783 -5.385,5.503 -8.64,1.434 -3.254,-4.03 -8.64,-14.105 -14.839,-16.856 -6.199,-2.752 -13.561,-1.163 -16.312,-5.503 -2.79,-4.378 -8.175,-5.076 -10.771,-4.921 -2.635,0.194 -24.487,-12.787 -25.456,-15.887 -1.007,-3.062 -1.627,-5.813 -3.603,-11.354 -1.938,-5.503 -10.771,-12.478 -14.026,-19.143 -3.255,-6.626 -10.771,-12.981 -10.461,-10.85 0.348,2.093 5.889,5.658 8.02,11.199 2.092,5.502 3.41,9.726 6.005,12.981 2.635,3.255 4.107,4.844 3.294,6.161 -0.814,1.279 -9.144,-3.719 -10.771,-9.92 -1.628,-6.161 -9.493,-15.577 -10.307,-19.452 -0.775,-3.875 -4.533,-6.82 -8.95,-11.858 -4.417,-5.037 -14.723,-20.614 -15.343,-30.806 a 320.003,320.003 0 0 0 -2.441,-26.931 c -0.969,-5.541 -9.803,-11.044 -9.803,-17.36 0,-6.355 -13.212,-17.709 -16.815,-23.056 -3.565,-5.348 -15.343,-18.174 -24.138,-18.174 -8.796,0 -10.268,-1.938 -11.43,-3.875 -1.163,-1.938 -5.192,-3.604 -5.192,-1.628 0,1.938 -1.008,4.689 -3.1,6.627 -2.13,1.937 -6.858,5.696 -7.516,3.255 -0.66,-2.442 -3.255,-7.285 -3.604,-5.813 -0.31,1.434 0.504,2.713 0,5.038 -0.465,2.247 -2.596,3.216 -1.472,4.495 1.162,1.317 4.572,2.945 3.913,4.882 -0.658,1.938 -4.727,5.658 -5.85,4.689 -1.163,-0.969 0.155,-6.161 -2.325,-5.813 -2.402,0.31 -7.788,6.782 -11.236,8.758 -3.41,1.937 -4.572,0.775 -7.517,3.255 -2.906,2.402 -7.633,5.037 -7.478,2.712 0.155,-2.247 4.572,-2.092 5.85,-4.65 1.318,-2.635 2.132,-3.448 7.207,-6.2 5.037,-2.751 9.106,-7.633 7.672,-8.253 a 35.855,35.855 0 0 0 -8.524,-0.814 c -1.782,0 -8.95,1.124 -9.764,-2.596 -0.813,-3.759 1.473,-2.79 -2.44,-6.51 -3.914,-3.72 -7.827,-6.007 -6.549,-8.603 1.318,-2.596 9.648,-6.626 12.593,-8.447 2.905,-1.783 3.874,-3.875 2.092,-4.03 -1.782,-0.155 -15.343,-0.349 -16.66,-1.473 -1.28,-1.162 -3.565,-4.534 -2.907,-6.316 0.66,-1.783 6.51,-6.665 8.64,-5.813 2.132,0.775 6.859,1.938 7.014,0.775 0.155,-1.162 -8.33,-8.292 -9.3,-11.663 -0.968,-3.41 0.814,-2.945 3.255,-3.914 2.48,-0.969 8.176,-3.72 11.275,-6.665 3.1,-2.906 9.454,-6.975 17.94,-4.534 8.523,2.441 17.938,5.038 23.169,4.728 5.23,-0.349 5.037,-3.759 11.934,-0.194 6.857,3.565 11.08,6.51 15.498,5.386 4.378,-1.162 23.479,-6.355 25.262,-6.2 1.821,0.194 1.976,2.286 5.734,1.628 3.758,-0.62 5.037,-2.713 6.354,-1.279 1.318,1.434 3.449,2.751 4.882,1.937 1.473,-0.775 4.107,-1.627 5.89,0.31 1.782,1.938 7.516,5.193 10.616,5.193 3.099,0 6.974,0.814 7.361,2.596 0.31,1.783 1.434,2.286 4.689,2.596 3.293,0.349 12.243,2.132 12.592,-0.155 0.31,-2.247 3.409,-3.875 -1.008,-3.565 -4.378,0.31 -11.584,2.907 -13.018,0.31 -1.472,-2.596 2.092,-2.712 -2.635,-3.565 -4.727,-0.775 -10.267,0.504 -10.267,-2.092 0,-2.596 1.627,-4.379 4.417,-4.728 2.751,-0.31 3.719,-1.588 1.278,-1.278 -2.441,0.31 -7.826,0.503 -8.33,-2.093 -0.465,-2.596 -2.441,-3.1 -1.782,-5.851 0.658,-2.751 4.262,-8.293 2.634,-8.293 -1.666,0 -1.821,3.1 -4.416,7.13 -2.635,4.07 -4.921,9.107 -8.021,6.666 -3.099,-2.442 -4.223,-3.72 -6.509,-5.813 -2.286,-2.131 -5.889,-9.416 -0.155,-11.392 0,0 2.131,-0.892 1.627,-3.217 -0.503,-2.364 -2.208,-3.759 1.86,-3.991 4.107,-0.232 14.53,0.31 19.76,3.604 5.231,3.293 10.113,8.486 13.561,7.168 a 21.695,21.695 0 0 1 8.292,-1.782 c 2.324,0.078 6.47,-0.543 9.221,-2.984 2.79,-2.441 4.068,-1.782 5.463,-0.542 1.395,1.278 -3.487,6.471 -2.751,8.253 0.736,1.783 2.441,7.944 7.556,10.153 5.153,2.17 7.206,4.379 5.889,5.89 -1.317,1.55 -3.758,4.301 -3.41,5.541 0.31,1.201 -0.775,2.829 -3.371,2.829 h -6.431 c 0,0 -1.395,3.991 4.417,4.805 5.811,0.775 13.367,0.969 13.871,-1.395 0.464,-2.325 3.835,-2.015 2.712,-4.069 -1.163,-2.015 -3.487,-4.456 -1.356,-6.084 2.131,-1.627 6.548,-0.891 7.013,0.814 0.503,1.705 3.603,3.1 2.208,5.348 -1.356,2.286 -2.712,3.332 -1.279,3.991 1.357,0.659 5.192,-1.395 5.115,-4.728 -0.078,-3.293 -5.192,-4.611 -6.044,-6.471 -0.775,-1.86 -2.441,-6.2 -0.388,-9.3 2.131,-3.177 4.727,-2.712 4.417,-5.812 -0.349,-3.062 -1.666,-11.974 0.542,-12.827 2.209,-0.852 12.98,-0.038 12.748,2.054 -0.233,2.132 -11.236,8.525 -10.113,11.276 1.163,2.752 5.308,4.147 5.541,7.79 0.232,3.642 -0.736,8.292 1.55,9.415 2.286,1.163 2.131,2.907 3.409,3.41 1.318,0.465 1.821,0.388 2.131,-1.201 0.349,-1.627 3.1,-2.209 4.068,0 1.008,2.17 -0.891,10.54 1.899,10.54 2.751,0 3.255,-2.131 3.255,-4.456 0,-2.364 2.596,-1.085 2.596,-4.146 0,-3.1 1.472,-6.355 -1.047,-7.13 -2.518,-0.814 -8.64,-2.713 -10.616,-5.193 -1.937,-2.519 -4.301,-10.075 -0.387,-15.849 a 11.855,11.855 0 0 1 13.871,-4.223 c 2.944,1.317 7.671,0.775 8.717,0.775 1.046,0 7.672,-1.86 11.081,0.503 3.449,2.403 12.515,11.316 16.157,13.408 3.681,2.131 15.343,3.759 16.816,9.261 1.472,5.503 -0.31,8.913 3.913,12.168 4.262,3.255 13.948,6.975 11.856,11.198 -2.053,4.224 -5.967,8.448 -8.601,6.51 -2.596,-1.937 -9.454,-4.572 -7.982,-2.325 1.472,2.325 10.461,8.138 8.989,11.393 -1.472,3.255 -4.921,5.347 -6.858,7.13 -1.937,1.782 -6.199,0.504 -11.623,-4.224 -5.347,-4.689 -10.578,-8.099 -14.801,-7.944 -4.262,0.155 -9.144,0.349 -9.299,-3.72 -0.194,-4.068 7.361,0 10.461,-5.037 3.1,-5.038 6.664,-6.665 5.812,-9.571 -0.775,-2.907 -5.347,-1.163 -6.819,0.968 -1.473,2.132 -4.262,1.628 -4.727,-1.278 -0.504,-2.945 4.882,-1.473 2.286,-6.2 -2.635,-4.65 -4.921,-10.85 -7.207,-7.44 -2.286,3.41 -3.874,6.316 -6.005,3.72 -2.131,-2.597 -5.231,-3.875 -3.952,-1.434 1.317,2.402 6.393,6.471 2.944,11.819 -3.409,5.347 -7.168,6.006 -6.664,8.757 0.465,2.751 7.362,10.075 8.95,12.013 1.627,1.937 2.945,3.565 -0.465,4.068 a 12.371,12.371 0 0 1 -4.727,-0.62 c -2.053,-0.581 -3.913,-1.123 -4.765,-0.193 -1.473,1.627 -3.875,3.875 -7.827,1.937 -3.874,-1.937 -2.751,-4.224 -2.286,-5.812 0.504,-1.628 2.635,-7.169 1.162,-7.169 -1.472,0 -0.348,1.782 -3.293,5.037 -2.906,3.255 -6.974,1.783 -10.577,8.448 -3.604,6.626 -8.641,13.446 -9.299,16.197 -0.659,2.79 4.378,4.263 5.54,6.355 1.163,2.093 -2.441,1.938 4.069,6.317 6.548,4.378 10.926,7.633 17.125,9.261 6.199,1.627 10.306,0 10.306,3.41 0,3.41 -0.348,8.137 1.279,9.571 1.627,1.434 1.821,2.248 2.325,4.379 0.465,2.092 4.882,2.596 5.85,0 0.969,-2.596 -3.409,-7.944 -0.813,-11.354 2.595,-3.41 7.167,-5.696 5.54,-10.385 -1.627,-4.727 -7.672,-11.237 -6.199,-12.981 1.472,-1.783 2.79,-0.155 2.944,-4.069 0.155,-3.875 -1.472,-13.95 0.31,-14.609 0.892,-0.31 1.357,0.117 2.131,0.582 0.775,0.426 1.86,0.891 4.069,0.542 4.417,-0.62 14.219,-0.155 16.312,3.914 2.131,4.069 3.293,1.472 4.416,6.665 1.163,5.192 4.069,11.199 7.168,7.44 3.1,-3.72 4.766,-7.944 7.362,-6.471 2.596,1.433 2.131,18.173 8.64,21.08 6.548,2.945 16.157,5.347 16.157,11.353 0,6.007 -1.472,13.795 0.969,16.237 2.441,2.441 3.758,0.775 4.107,4.533 0.31,3.759 3.874,6.975 2.286,9.727 -1.666,2.79 -6.548,0.503 -10.772,0 -4.262,-0.465 -8.833,-2.597 -7.865,-5.658 1.008,-3.1 8.834,-11.199 6.393,-12.322 -2.441,-1.163 -3.293,3.1 -7.516,4.03 -1.938,0.465 -5.502,0.387 -8.912,0.271 -3.952,-0.116 -7.633,-0.233 -7.904,0.542 -0.465,1.473 6.354,0.504 4.727,3.875 -1.627,3.449 -2.441,7.75 0.194,10.618 2.596,2.867 6.974,2.635 8.291,0 1.318,-2.635 4.107,0.465 3.759,2.054 -0.31,1.627 -12.244,5.541 -14.53,9.92 -2.286,4.378 -5.541,4.068 -6.354,1.627 -0.775,-2.441 4.882,-5.347 2.634,-5.037 -2.324,0.31 -2.131,0 -6.044,3.875 -3.913,3.875 -6.199,6.355 -5.23,8.447 0.968,2.131 0.813,2.945 -2.131,4.534 -2.945,1.627 -12.244,6.665 -12.554,11.858 -0.31,5.192 -1.317,10.849 -4.417,13.484 -3.1,2.597 -14.026,11.509 -14.026,14.919 0,3.41 1.473,9.571 3.449,12.168 1.937,2.596 3.099,8.757 0.31,10.23 -2.79,1.433 -6.2,-1.318 -6.355,-5.387 -0.193,-4.03 -0.348,-10.849 -4.92,-12.477 -4.572,-1.627 -17.126,-3.565 -16.777,-0.969 0.31,2.597 -1.317,5.193 -3.603,4.224 -2.286,-0.969 -5.231,-4.883 -8.137,-2.131 -2.945,2.79 -10.151,2.79 -10.151,7.788 0,5.038 -0.31,10.076 -0.465,15.268 -0.194,5.193 -0.814,12.012 4.572,15.422 5.385,3.41 7.981,3.255 11.895,0 3.913,-3.255 3.254,-7.129 6.354,-8.602 3.099,-1.472 8.834,1.163 7.516,4.844 -1.317,3.759 -4.727,12.826 0.155,14.608 4.882,1.783 10.462,-0.155 11.12,4.883 0.62,5.038 -1.821,10.695 0.155,13.95 1.938,3.255 5.386,5.812 8.486,4.689 3.099,-1.124 3.874,0 6.354,1.162 2.441,1.163 3.099,2.248 6.354,-1.317 3.255,-3.565 6.548,-8.254 13.871,-6.82 7.362,1.472 10.926,3.41 19.256,3.758 8.331,0.31 14.336,5.658 18.598,10.54 4.262,4.883 12.244,4.689 16.002,6.317 3.758,1.627 5.386,9.92 6.858,14.298 1.472,4.379 0.31,6.317 7.981,7.944 7.672,1.628 7.517,1.163 9.454,3.875 1.938,2.79 3.1,2.945 10.772,4.263 7.671,1.279 7.012,2.092 10.616,4.65 z M 253.55,317.864 c 4.029,3.216 7.788,5.541 11.74,7.207 3.952,1.705 10.074,2.209 9.299,4.766 -0.775,2.597 -2.596,4.805 -5.463,3.255 -2.868,-1.55 -5.115,-2.712 -9.377,-5.308 -4.262,-2.558 -5.269,-3.72 -8.524,-3.1 -3.254,0.658 -7.245,-0.271 -6.354,-1.667 0,0 4.649,-8.37 8.679,-5.153 z m 25.688,13.562 c 1.163,-1.162 6.509,-3.758 7.904,-1.162 1.434,2.557 2.325,2.557 4.03,4.107 1.705,1.55 3.099,2.325 0,3.604 -3.1,1.279 -0.504,2.596 -6.083,2.441 -5.58,-0.116 -7.129,-2.557 -9.222,-3.1 -2.053,-0.504 -2.983,-3.216 0,-3.72 0,0 2.209,-1.046 3.371,-2.209 z M 422.984,128.88 c -0.078,-2.558 0.813,-5.968 3.409,-3.953 2.596,1.938 2.325,2.674 7.594,2.287 5.27,-0.388 14.568,-1.202 15.963,1.162 1.395,2.403 0.388,5.038 -0.891,7.053 -1.317,1.976 -2.712,5.347 -5.502,5.773 -2.789,0.388 -8.291,0.698 -10.19,-1.201 -1.898,-1.899 -5.657,-2.984 -6.393,-3.952 a 20.903,20.903 0 0 1 -1.549,-3.604 c 0,0 -2.325,-0.969 -2.441,-3.565 z m 100.97,-84.32 c -2.363,-1.395 -2.906,-6.394 -0.891,-9.959 2.015,-3.565 6.432,-0.387 9.57,-1.782 3.138,-1.395 2.751,-2.79 7.013,-1.628 4.262,1.163 4.029,1.279 5.967,-0.426 1.937,-1.705 6.974,-2.906 13.832,-2.17 6.858,0.775 11.585,1.046 10.732,3.216 -0.775,2.132 -3.177,6.82 -6.238,7.556 -3.099,0.776 -5.695,-0.658 -8.911,-2.17 -3.216,-1.472 -9.841,-3.565 -8.214,-1.82 a 134.956,134.956 0 0 0 12.088,9.3 c 3.759,2.557 6.975,3.68 4.495,6.78 -2.48,3.1 -8.059,7.905 -9.57,4.457 -1.473,-3.41 -1.783,-9.572 -3.487,-9.92 -1.744,-0.388 -4.495,2.867 -5.076,5.037 -0.62,2.132 -2.17,4.65 -3.758,7.053 -1.55,2.363 -5.502,0.503 -6.936,-2.907 -1.395,-3.41 -4.107,-3.797 -4.455,-6.2 -0.388,-2.48 0.232,-4.03 -1.667,-3.797 0,0 -2.092,0.775 -4.494,-0.62 z M 625.196,24.1 c 4.572,1.162 3.913,1.938 8.02,1.162 4.068,-0.852 5.541,-3.1 6.858,-0.58 1.279,2.518 -1.666,3.293 -3.758,5.734 -2.131,2.442 -4.572,3.41 -6.975,1.628 -2.324,-1.783 -0.387,-3.371 -4.262,-3.798 -3.952,-0.387 -8.369,-0.891 -6.741,-3.022 0,0 2.325,-2.248 6.858,-1.124 z m 28.245,-5.193 c 4.068,-3.565 8.485,-8.912 9.454,-4.882 0.969,4.069 -3.1,6.665 -2.131,9.494 1.007,2.867 2.635,1.201 6.199,0 3.604,-1.201 5.076,-0.078 8.176,-3.488 3.099,-3.41 9.453,1.628 5.695,4.379 -3.719,2.79 -6.974,0.349 -8.485,3.1 -1.472,2.751 -6.974,1.162 -10.771,2.751 -3.72,1.628 -10.268,2.287 -10.268,-1.162 0,-3.372 -6.703,-2.907 -3.874,-6.317 0.852,-1.046 1.937,-0.31 6.005,-3.875 z m 2.945,67.658 a 12.014,12.014 0 0 0 0,11.354 c -0.504,4.533 -5.735,0 -9.803,-3.565 -4.068,-3.565 -5.385,-1.628 -6.509,-5.348 -1.162,-3.72 14.994,-19.297 18.753,-24.18 3.758,-4.882 7.516,-3.72 12.243,-5.657 4.727,-1.938 7.168,-0.194 10.074,-5.038 2.983,-4.882 10.306,-1.162 10.655,2.713 0.31,3.913 -8.524,6.51 -14.723,9.106 -6.199,2.596 -7.633,2.286 -10.733,6.665 -3.099,4.379 -6.703,8.138 -9.957,13.95 z M 487.495,205.837 c -6.858,0.969 -9.609,2.752 -9.609,2.752 -3.216,1.317 -2.131,-2.442 -1.008,-4.379 1.163,-1.938 -1.627,-3.1 -1.782,-5.038 -0.155,-1.937 4.882,-2.441 6.044,-5.037 1.163,-2.596 -0.155,-2.713 -2.324,-6.006 a 128.502,128.502 0 0 1 -7.323,-13.292 c -1.782,-3.875 2.131,-4.533 4.572,-6.316 2.441,-1.782 4.572,-0.349 4.727,1.279 0.193,1.627 2.634,1.937 6.315,3.1 3.72,1.162 -0.775,4.224 -0.93,7.75 -0.155,3.604 7.672,8.796 9.648,15.112 1.937,6.317 -1.472,9.107 -8.33,10.075 z m -16.428,-6.82 c -3.1,4.883 -8.718,3.72 -8.718,3.72 -3.255,-1.433 -1.627,-3.875 0.852,-9.842 2.441,-5.929 2.441,-7.828 6.2,-9.61 3.719,-1.783 6.354,4.534 5.036,7.944 -1.317,3.41 -0.31,2.906 -3.37,7.75 z M 230.613,218.16 c -3.255,1.279 -4.456,4.495 -4.456,4.495 -0.542,1.046 0.194,1.937 2.325,0.736 2.131,-1.24 5.153,-1.434 6.083,-0.31 0.891,1.085 2.208,2.829 3.642,1.821 1.395,-1.007 1.085,-1.007 3.099,-3.022 2.054,-2.015 -3.332,-4.534 -5.811,-6.161 -2.558,-1.589 -1.666,1.123 -4.882,2.441 z m 6.858,19.22 c -0.504,-3.526 2.441,-2.945 3.874,-5.541 1.395,-2.635 0.271,-4.263 -1.317,-4.03 -1.627,0.193 -4.65,4.843 -5.463,7.633 -0.814,2.829 0,8.99 0,8.99 0.232,2.325 2.402,1.512 3.487,0 1.162,-1.55 -0.078,-3.526 -0.581,-7.052 z m 19.062,-6.665 c -0.116,-1.899 -2.944,-1.279 -7.323,-3.41 -4.339,-2.131 -3.099,1.201 -3.099,1.201 0,0 1.162,1.628 2.208,3.565 1.008,1.938 0.388,2.984 1.008,4.766 0.62,1.783 3.138,-0.077 3.874,-2.402 0.698,-2.325 3.41,-1.783 3.332,-3.72 z M 996.105,101.677 c 4.265,0 9.295,0 19.375,5.038 11.78,5.812 32.51,17.321 32.51,18.6 0,1.317 -2.79,1.317 -4.27,4.107 -1.47,2.713 0.35,7.13 -4.88,5.968 -5.23,-1.124 -10.92,-8.254 -13.4,-7.44 -2.41,0.775 -0.47,1.937 -4.54,4.689 -4.1,2.751 -8.52,3.255 -8.33,4.378 0.16,1.163 4.73,4.883 2.75,7.324 -1.93,2.441 -7.16,2.441 -7.82,4.03 -0.66,1.628 -9.457,9.416 -16.277,10.385 -2.634,0.388 -5.811,0.31 -8.795,0.233 -4.92,-0.117 -9.337,-0.233 -10.151,1.55 -1.317,2.945 -3.603,5.851 -3.758,11.392 -0.155,5.503 0.658,6.82 -4.921,11.509 -5.541,4.689 -11.236,18.987 -14.84,18.174 -3.564,-0.814 -3.099,-23.057 -1.472,-27.125 1.666,-4.03 10.616,-11.315 12.399,-14.57 1.821,-3.255 10.461,-6.975 11.275,-9.417 0.813,-2.441 -0.155,-5.696 -3.1,-1.472 -2.945,4.262 -6.044,9.261 -8.64,6.51 -2.635,-2.751 -2.635,-4.573 -5.541,-4.069 -2.945,0.504 -7.051,0.31 -8.989,5.348 -1.937,5.037 0.969,5.696 -3.099,6.665 -4.069,0.968 -4.572,1.472 -7.672,-0.659 -3.1,-2.093 -18.753,-3.255 -23.48,-0.155 -4.727,3.1 -22.046,19.646 -20.728,21.584 1.278,1.937 -0.349,1.937 2.595,4.223 2.945,2.248 3.449,0.969 6.858,-0.968 3.41,-1.938 5.89,1.937 6.858,2.092 0.969,0.155 -0.503,-2.751 2.596,-2.906 3.1,-0.155 2.131,9.416 2.131,13.136 0,3.72 2.131,4.224 2.441,7.285 0.349,3.1 -3.099,4.883 -3.099,6.006 0,1.163 2.441,7.789 2.324,8.913 -0.193,1.162 -4.765,1.472 -4.765,2.441 0,0.969 -3.759,2.286 -3.449,-0.465 0.349,-2.751 3.294,-22.397 0.659,-22.242 -2.596,0.155 -2.596,2.131 -2.751,6.975 -0.155,4.882 -6.703,15.112 -8.834,18.212 -2.092,3.061 -6.819,12.943 -10.732,13.95 -3.952,0.93 -8.679,1.434 -11.43,5.154 -2.79,3.759 -8.021,4.727 -6.045,8.757 1.938,4.069 6.355,11.548 4.727,14.299 -1.627,2.751 -8.64,6.975 -9.299,4.534 -0.658,-2.441 3.759,-7.13 -0.155,-9.726 -3.913,-2.597 -4.417,-2.132 -5.036,-5.697 -0.698,-3.565 -2.325,-2.906 -5.425,-2.441 -3.099,0.504 -6.044,0.814 -5.85,-0.969 0.155,-1.782 -6.858,3.255 -6.2,5.038 0.62,1.782 1.279,4.379 3.255,2.441 1.937,-1.937 3.255,-3.255 5.851,-2.441 2.634,0.814 2.324,2.131 0.852,5.192 -1.472,3.1 -6.703,2.287 -5.579,6.317 1.162,4.068 6.703,15.112 5.23,22.242 -1.472,7.13 -7.516,11.354 -8.795,14.919 -1.317,3.565 -6.393,8.138 -10.306,10.23 -3.875,2.131 -11.236,5.348 -13.677,5.813 -2.48,0.503 -15.692,1.511 -14.22,6.703 1.472,5.193 3.913,7.44 7.207,12.633 3.254,5.192 4.378,11.702 2.092,14.608 -2.286,2.907 -7.362,3.875 -7.672,7.479 -0.31,3.565 -2.751,3.41 -3.874,1.124 -1.163,-2.286 -1.008,-1.473 -4.185,-4.805 -3.177,-3.294 -5.889,-4.263 -6.78,-6.084 -0.891,-1.782 -2.325,-4.456 -3.603,-1.782 -1.202,2.712 -1.279,4.805 -2.248,6.975 -1.007,2.208 0.078,4.727 0.891,6.083 0.775,1.395 3.178,5.309 7.246,9.417 4.068,4.146 5.231,5.192 5.231,9.029 0,3.797 0.232,8.68 -1.318,8.757 -1.55,0.078 -8.136,-6.82 -8.718,-10.075 -0.581,-3.255 -1.704,-7.866 -3.603,-11.935 -1.86,-4.03 -2.712,-3.139 -2.712,-5.967 0,-2.868 1.085,-11.858 0.116,-13.718 -0.968,-1.86 -2.208,-2.131 -2.867,-5.425 -0.659,-3.333 -0.504,-6.743 -1.86,-6.355 -1.395,0.387 -4.998,3.332 -6.044,3.487 -1.046,0.155 -2.363,-4.262 -2.131,-7.207 0.232,-2.945 0.504,-5.27 -1.782,-7.789 -2.325,-2.519 -5.657,-4.262 -5.967,-6.2 -0.31,-1.937 -2.596,-0.93 -3.913,-0.232 -0.465,0.271 -1.395,0.232 -2.48,0.155 -1.86,-0.078 -4.146,-0.194 -5.037,1.472 -1.356,2.596 -2.751,7.75 -7.904,12.245 -5.153,4.573 -13.561,7.479 -13.561,9.3 0,1.744 0.853,9.881 0.349,11.238 -0.504,1.395 -0.581,4.65 -1.782,6.897 -1.24,2.286 -2.325,6.2 -4.572,6.82 -2.325,0.659 -6.781,-3.642 -6.975,-8.176 -0.116,-4.573 -4.765,-17.128 -6.664,-21.313 a 35.39,35.39 0 0 1 -3.254,-12.865 c 0.232,-2.518 -2.209,-4.688 -3.371,-3.991 -1.124,0.775 -6.432,-2.325 -7.478,-4.65 -1.085,-2.402 -5.153,-7.827 -7.827,-9.029 -1.356,-0.62 -4.649,-0.31 -7.865,0 -3.255,0.31 -6.509,0.582 -7.827,0 -2.596,-1.24 -8.717,-3.758 -10.5,-4.805 -1.821,-1.046 -7.012,0.388 -8.911,-2.441 -1.86,-2.829 -11.585,-14.337 -13.948,-13.872 -2.325,0.503 -3.565,5.774 -2.015,8.292 1.55,2.519 7.168,7.053 7.478,10.54 0.348,3.488 3.448,4.883 4.92,3.875 1.434,-0.969 4.805,-4.379 7.556,-2.984 a 38.375,38.375 0 0 1 9.57,6.511 c 2.325,2.479 3.991,4.533 3.487,7.129 -0.465,2.597 -14.917,17.36 -18.753,20.422 -3.836,3.1 -8.253,3.836 -14.994,7.169 -6.781,3.293 -11.856,6.2 -13.329,3.952 a 183.988,183.988 0 0 1 -9.841,-21.816 c -1.976,-5.813 -3.758,-7.75 -5.734,-14.454 -1.938,-6.626 -7.517,-16.546 -9.803,-16.198 -2.247,0.31 -4.378,-0.658 -1.434,4.689 a 123.623,123.623 0 0 1 8.951,22.398 c 1.317,5.502 3.758,4.533 6.548,12.322 2.751,7.789 7.981,11.703 9.957,15.733 a 7.671,7.671 0 0 0 9.919,3.758 c 3.448,-1.472 11.779,-2.79 13.057,1.628 1.318,4.379 -9.609,21.894 -16.273,31.465 -6.703,9.571 -18.288,19.298 -18.288,24.18 0,4.844 1.938,11.005 3.41,16.197 1.472,5.193 0.504,12.013 0.504,15.578 0,3.604 0.31,7.983 -5.735,11.548 -6.044,3.565 -10.771,8.757 -9.609,13.291 1.163,4.534 2.596,5.812 0.659,10.23 -1.937,4.379 -7.865,6.161 -8.02,9.881 a 23.101,23.101 0 0 1 -3.41,10.734 c -1.627,2.247 -3.603,10.075 -7.361,13.601 a 23.054,23.054 0 0 1 -13.058,6.006 c -4.727,0.659 -12.204,6.51 -16.66,4.573 -4.378,-1.938 -1.124,-9.572 -4.03,-15.771 -2.944,-6.162 -7.051,-9.068 -7.865,-15.578 -0.775,-6.471 -1.124,-15.384 -3.1,-19.956 -1.937,-4.534 -7.671,-13.446 -4.378,-22.204 3.255,-8.757 2.751,-19.336 1.163,-28.094 -1.667,-8.757 -9.493,-16.197 -9.493,-23.172 0,-6.975 1.627,-14.454 -1.472,-17.05 -3.1,-2.597 -11.895,-4.534 -12.903,-7.13 -0.968,-2.596 -10.073,0.465 -14.18,2.402 -2.596,1.24 -3.72,0.93 -4.96,0.581 -0.697,-0.155 -1.472,-0.387 -2.557,-0.232 -2.945,0.31 -10.268,5.038 -13.871,1.938 -3.564,-3.1 -15.498,-12.982 -17.125,-18.988 -1.628,-6.006 -10.927,-12.632 -9.144,-19.452 1.821,-6.821 2.789,-7.789 2.324,-12.013 -0.503,-4.262 0.775,-18.677 4.224,-23.87 3.409,-5.193 10.577,-8.254 11.74,-14.725 a 31.777,31.777 0 0 1 7.671,-16.74 c 4.068,-4.224 5.696,-8.293 5.696,-9.726 0,-1.473 2.441,-2.945 -1.628,-5.852 -4.068,-2.906 -7.167,1.279 -7.167,-9.416 v -12.012 c 0,0 0.658,-4.689 3.409,-5.658 1.085,-0.387 3.875,-0.232 6.974,-0.077 4.96,0.232 10.578,0.503 11.004,-1.395 0.62,-3.1 4.223,-8.293 0,-11.664 -4.262,-3.41 -9.493,-6.51 -8.524,-8.913 1.007,-2.48 4.262,-2.945 7.865,-2.945 3.565,0 9.144,0.078 11.895,-3.952 2.79,-3.991 9.803,-16.973 14.53,-17.825 4.727,-0.775 5.889,-1.434 5.23,-3.875 -0.658,-2.441 -4.107,-7.285 -3.099,-9.223 0.968,-1.937 4.572,-6.975 6.199,-5.037 1.627,1.937 0.969,7.13 2.092,6.975 1.163,-0.155 2.945,-5.696 1.472,-9.106 -1.472,-3.41 -2.092,-9.572 -4.261,-7.44 -2.093,2.092 -2.906,4.843 -6.51,5.812 -3.564,1.008 -6.199,-4.417 -6.509,-6.239 -0.31,-1.86 -4.417,-8.331 -0.504,-12.555 3.914,-4.262 14.53,-14.298 17.32,-19.336 2.751,-5.037 12.243,-18.639 20.07,-24.335 7.826,-5.657 10.771,-9.687 15.963,-10.54 5.23,-0.775 17.978,1.705 18.288,3.681 0.31,2.015 -0.659,2.015 3.448,3.798 4.068,1.782 18.249,8.254 23.983,10.385 5.696,2.092 8.951,6.316 4.882,9.571 -4.068,3.255 -9.957,3.255 -12.398,3.255 -2.441,0 -5.037,2.596 -2.945,6.084 2.131,3.487 2.131,0.077 4.417,-1.395 1.007,-0.659 1.627,0 2.209,0.581 0.774,0.775 1.549,1.55 2.983,-0.271 2.635,-3.216 2.867,-7.44 7.555,-6.781 4.689,0.62 5.967,0.775 5.967,-3.759 0.039,-4.534 1.007,-11.509 3.138,-11.664 1.047,-0.077 1.434,2.364 2.015,4.844 0.543,2.48 1.318,4.96 3.216,4.882 3.758,-0.155 6.974,-0.503 9.958,-4.688 a 11.396,11.396 0 0 1 9.299,-4.573 c 1.472,0 -0.814,1.938 6.354,1.938 7.168,0 13.638,0.658 13.948,-1.279 0.233,-1.938 1.356,-2.596 0,-4.883 -1.395,-2.247 -3.836,-1.278 -3.836,-4.03 0,-2.75 2.945,-5.114 4.495,-2.014 1.55,3.138 -0.078,5.424 3.177,5.231 3.255,-0.155 5.889,0.348 8.989,2.131 3.099,1.782 8.485,4.534 10.074,2.596 1.666,-1.937 -3.565,-7.207 -4.224,-9.959 -0.658,-2.712 2.945,-7.75 6.2,-11.314 3.293,-3.566 3.293,-6.472 4.92,-8.1 1.628,-1.627 2.286,-3.72 3.72,0 1.472,3.72 2.945,3.72 3.448,6.2 0.504,2.403 0.504,4.845 0,7.75 -0.503,2.907 0.388,5.813 0.388,9.107 -0.078,3.216 -0.891,6.471 1.394,6.471 2.325,0 2.131,0.31 1.628,-3.41 -0.465,-3.72 -2.751,-6.665 -1.472,-10.23 1.317,-3.565 0.309,-4.843 1.782,-7.595 1.511,-2.79 -0.31,-5.696 1.821,-5.037 2.131,0.62 2.325,5.037 4.262,5.037 1.937,0 11.391,2.093 12.05,-1.317 0.658,-3.41 0.155,-8.215 5.037,-9.068 4.92,-0.814 11.468,-0.194 13.909,-3.914 2.441,-3.72 9.958,-12.167 14.181,-12.322 0.969,-0.039 2.325,0 3.874,0.116 5.192,0.233 12.903,0.465 17.165,-3.526 5.579,-5.193 14.529,-7.75 18.597,-6.859 4.107,0.853 4.262,5.232 7.517,5.232 3.255,0 16.467,1.782 18.133,3.255 1.627,1.433 2.441,4.223 0.775,6.316 -1.589,2.131 -3.565,3.565 -5.541,5.037 -1.937,1.473 -5.037,-0.504 -6.005,2.442 -1.008,2.906 -5.58,4.03 -5.58,6.16 0,2.093 3.952,0.466 4.921,-1.162 0.969,-1.588 3.758,-4.689 6.199,-5.153 2.441,-0.504 0.969,1.278 6.936,4.184 5.967,2.945 14.258,3.604 19.489,3.41 5.23,-0.154 7.826,-4.843 11.081,-5.037 3.293,-0.155 14.219,0.659 14.064,5.038 -0.193,4.378 -2.324,3.1 -1.007,5.696 1.317,2.596 1.821,3.565 2.325,5.657 0.465,2.132 2.712,4.573 3.874,1.163 1.163,-3.41 1.821,-4.573 4.262,-3.875 2.441,0.62 -1.937,1.743 3.759,2.557 5.695,0.814 15.498,1.318 15.963,-0.969 0.503,-2.286 -1.124,-4.882 6.393,-6.006 7.477,-1.162 16.273,-3.72 21.503,-0.775 5.231,2.906 6.393,10.695 14.065,9.688 7.672,-0.969 14.026,-1.938 15.963,1.317 1.937,3.255 0.852,5.503 4.766,6.2 1.627,0.233 5.734,0.194 10.073,0.155 5.89,-0.077 12.244,-0.116 13.561,0.62 2.325,1.318 3.914,3.565 5.037,1.783 1.163,-1.783 -0.93,-3.255 3.952,-3.1 z M 627.947,451.435 a 6.967,6.967 0 0 1 5.153,-5.851 c 3.719,-1.163 5.85,6.975 5.308,10.927 -0.504,3.914 -3.177,7.75 -5.308,20.383 -2.131,12.632 -8.524,19.336 -12.282,16.972 -3.759,-2.325 -2.325,-7.75 -3.875,-10.85 -1.472,-3.061 -0.388,-7.168 1.743,-10.772 2.131,-3.643 0,-6.704 -0.542,-10.075 -0.542,-3.41 8.95,-5.774 9.803,-10.734 z m 219.686,-111.6 c 0,3.604 -2.286,4.727 0,7.479 2.247,2.751 8.795,10.385 9.299,12.671 0.465,2.248 -0.853,5.192 0.62,6.626 1.472,1.473 5.424,6.2 2.789,11.238 -2.634,5.037 -4.533,1.743 -8.369,1.743 -3.874,0 -4.339,-2.712 -4.339,-4.688 0,-1.938 3.41,-6.51 2.906,-8.293 -0.504,-1.782 -4.882,-3.565 -4.727,-6.781 0.155,-3.255 -1.627,-5.192 -3.1,-8.137 -1.472,-2.907 -2.479,-3.101 -2.208,-6.976 0.232,-3.875 -0.581,-4.533 0,-6.82 0.581,-2.247 0.775,-4.688 2.208,-3.875 0,0 4.921,2.248 4.921,5.813 z m -6.083,23.25 c 1.162,0.62 0.659,3.72 -1.046,5.967 -1.705,2.287 -5.618,3.565 -5.463,1.938 0.155,-1.589 4.068,-3.875 4.262,-5.968 0,0 1.123,-2.596 2.247,-1.937 z m -31.384,38.75 c -0.968,-2.519 0.465,-6.471 3.991,-8.448 3.487,-1.937 8.718,-6.974 11.817,-11.004 3.1,-4.069 5.541,-7.75 7.362,-6.588 1.782,1.163 2.596,3.488 3.487,4.146 0.93,0.659 3.642,1.201 1.782,3.798 -1.859,2.596 -3.138,2.131 -2.983,4.727 0.155,2.596 0.077,4.185 2.286,5.813 2.208,1.627 1.162,2.519 0.155,3.332 -0.969,0.814 -4.262,3.255 -4.262,4.534 0,1.317 -0.078,3.488 -0.775,5.812 -0.775,2.248 -1.821,6.549 -4.921,7.169 -3.099,0.659 -5.308,-1.588 -8.64,-3.138 -3.332,-1.55 -5.502,-2.209 -6.432,-4.069 0,0 -1.898,-3.565 -2.867,-6.084 z M 770.84,380.987 c 1.549,-0.775 1.627,-2.286 6.431,2.519 4.805,4.767 8.524,7.285 12.399,10.85 3.913,3.604 4.494,6.51 5.967,9.107 1.472,2.596 6.703,2.673 7.516,4.068 0.775,1.357 -1.937,4.689 -2.053,6.317 -0.078,1.627 -1.86,6.82 -3.487,6.975 -1.666,0.155 -11.353,-10.308 -12.67,-13.873 -1.317,-3.565 -5.153,-10.463 -7.09,-13.563 -1.938,-3.1 -8.06,-8.679 -8.06,-9.881 0,0 -0.503,-1.705 1.047,-2.519 z m 8.834,21.584 c 1.007,-0.155 2.286,0.775 3.022,3.488 0.775,2.674 -0.155,4.456 -3.022,-0.814 0,0 -1.008,-2.519 0,-2.712 z m 26.966,6.123 c 2.441,-0.775 3.759,0 2.441,2.402 -1.278,2.325 -3.564,0 -3.564,0 0,0 -1.318,-1.627 1.162,-2.402 z m -5.269,15.693 c -0.852,-1.511 0.62,-4.96 3.797,-3.991 3.177,0.969 4.262,3.72 7.207,3.41 2.944,-0.271 5.966,-0.62 8.562,0.892 2.635,1.549 4.689,2.945 7.633,3.603 2.945,0.62 7.827,0.853 8.137,2.132 0.348,1.317 -1.821,2.712 -3.487,2.402 -1.589,-0.31 -2.596,0.426 -8.021,-1.744 a 18.016,18.016 0 0 0 -9.996,-1.511 c -1.201,0.232 -7.826,-2.17 -7.826,-2.17 0,0 -5.115,-1.511 -6.006,-3.023 z m 38.397,8.022 c 0,-1.085 2.634,-1.434 3.254,-2.054 0.659,-0.659 2.829,-1.937 4.805,-1.434 1.937,0.543 3.603,1.318 2.169,2.519 -1.394,1.163 -3.138,-0.233 -3.487,1.434 -0.31,1.666 -1.549,2.208 -2.944,2.325 0,0 -3.797,-1.705 -3.797,-2.79 z m 14.142,0.465 c 1.627,-1.008 2.092,-1.55 3.487,-2.519 1.433,-1.007 4.456,-1.937 5.23,-0.543 0.775,1.395 -2.518,3.992 -3.177,4.302 -0.62,0.348 -0.62,3.255 -2.596,3.487 -1.937,0.194 -4.572,-2.402 -4.572,-2.402 0,0 0,-1.318 1.628,-2.325 z m -13.639,-14.338 c -0.077,-1.588 0.272,-3.565 -0.503,-4.417 -0.775,-0.853 -3.681,-2.674 -2.286,-5.696 1.433,-3.1 2.324,-3.41 2.789,-5.115 0.465,-1.744 1.666,-6.937 3.526,-7.053 1.86,-0.077 7.284,0.543 8.524,0 1.163,-0.542 4.107,-0.891 3.642,0 -0.387,0.891 -2.596,1.55 -5.424,2.286 -2.828,0.775 -6.974,-0.658 -6.974,0.543 0,1.162 -0.62,4.417 0.891,4.534 1.55,0.116 3.255,-0.311 4.339,-1.085 1.085,-0.775 2.635,-1.279 2.713,0 0.116,1.317 -0.853,1.201 -1.938,1.937 -1.085,0.775 -2.518,0.543 -2.092,2.519 0.465,1.937 0.659,3.449 1.55,4.495 0.852,1.007 2.131,3.836 1.705,4.456 -0.388,0.659 -1.589,1.201 -2.906,0.775 -1.318,-0.426 -2.945,-1.937 -3.255,-1.472 -0.349,0.503 -2.208,3.642 -3.177,3.875 0,0 -1.046,1.046 -1.124,-0.582 z m 25.301,-25.42 c 1.821,0.891 4.766,3.061 4.34,4.573 -0.427,1.511 -2.325,2.247 -3.294,2.363 -0.968,0.117 -4.107,2.287 -3.874,-0.658 0.193,-2.907 0.542,-5.309 0.542,-5.309 0,0 0.388,-1.821 2.286,-0.969 z m -5.889,16.818 c 1.743,-0.271 1.627,-0.698 2.518,0.542 0.853,1.24 1.163,2.248 0.543,2.713 -0.659,0.426 -3.1,0 -3.1,0 0,-0.349 -1.705,-2.984 0,-3.255 z m 10.267,-0.271 c 1.589,0.465 3.449,1.356 3.526,1.782 0.116,0.388 0.581,2.325 -0.775,2.558 -1.278,0.232 -2.247,-0.775 -3.874,-0.775 -1.628,0 -4.146,-1.395 -3.371,-3.294 0,0 2.906,-0.775 4.494,-0.271 z m 9.106,-10.696 c 3.797,1.55 4.339,5.27 5.114,6.627 0.775,1.395 0.62,3.41 2.828,3.061 2.17,-0.388 0.543,0.388 2.829,-1.085 2.286,-1.472 3.681,-2.596 6.083,-1.937 2.402,0.581 8.911,3.952 12.824,5.231 3.914,1.317 8.602,2.402 9.803,4.379 1.162,2.015 2.054,5.696 3.371,7.207 1.317,1.511 3.371,6.704 5.308,8.331 1.937,1.628 5.812,4.534 5.579,6.278 -0.232,1.705 -6.315,2.054 -8.059,-0.543 -1.743,-2.596 -8.795,-8.912 -10.345,-8.757 -1.55,0.077 -3.603,1.627 -4.649,2.712 -1.124,1.046 -4.262,4.069 -6.548,1.55 -2.286,-2.557 -3.487,-3.332 -5.773,-3.216 -2.286,0.116 -4.65,-0.852 -4.65,-2.247 0,-1.395 -1.201,-7.906 -3.835,-9.61 -2.596,-1.744 -9.144,-3.372 -11.082,-6.51 -1.937,-3.139 -6.083,-4.418 -6.199,-6.2 0,0 3.565,-6.782 7.362,-5.271 z m 4.068,21.236 c 1.123,0.193 2.324,0.93 2.014,2.014 -0.348,1.085 0.117,1.551 -0.658,1.744 -0.775,0.233 -4.068,0.117 -2.712,-3.1 0,0 0.232,-0.775 1.356,-0.658 z m 43.666,-3.062 c 1.317,-0.116 6.625,-0.775 7.4,-1.898 0.775,-1.163 -0.426,-4.999 0.659,-5.58 1.085,-0.62 3.681,1.937 4.766,3.565 1.084,1.627 1.549,3.177 0,4.34 -1.512,1.201 -2.48,3.681 -4.999,4.533 -2.479,0.891 -3.487,1.86 -5.54,1.434 -2.054,-0.426 -4.882,-2.247 -4.998,-3.332 0,0 1.394,-2.945 2.712,-3.062 z m -15.886,25.536 c 1.124,3.992 3.72,7.131 5.037,9.184 1.279,2.054 2.054,7.053 2.712,9.843 0.62,2.829 4.572,7.052 8.021,10.85 3.487,3.758 15.227,18.135 15.227,25.962 0,7.75 -6.083,19.336 -8.37,23.754 -2.285,4.456 -3.37,11.16 -4.145,13.873 -0.736,2.712 -6.819,3.487 -9.454,5.192 -2.596,1.705 -7.943,1.162 -12.05,0 -4.146,-1.201 -12.515,-11.237 -15.459,-12.012 -2.945,-0.776 -4.572,-0.853 -5.541,-3.682 -0.969,-2.829 -11.546,-10.462 -13.29,-10.152 -1.743,0.31 -13.367,1.278 -16.428,3.875 -3.022,2.596 -2.712,4.65 -7.051,5.192 -4.34,0.543 -7.168,0.853 -10.229,2.17 -3.061,1.279 -11.236,2.48 -12.089,-0.542 -0.852,-3.023 0.117,-12.013 -1.821,-19.026 -1.937,-7.053 -3.061,-17.012 0,-27.28 3.022,-10.269 16.971,-7.247 21.62,-12.865 4.688,-5.619 12.631,-18.058 16.002,-17.632 3.371,0.427 2.712,2.907 4.882,1.085 2.17,-1.86 5.037,-6.936 8.137,-8.021 3.177,-1.085 6.664,0.426 8.485,0.426 1.782,0 6.122,-0.969 5.347,1.86 -0.775,2.79 -2.596,5.425 -1.705,7.13 0.852,1.744 6.393,6.2 9.337,8.138 2.945,1.937 6.548,3.642 7.168,-1.434 0.659,-5.038 -0.542,-14.144 1.124,-16.546 1.589,-2.364 1.395,-3.333 2.79,-3.604 0,0 0.658,0.271 1.743,4.262 z m 8.059,106.33 c 4.456,0 5.231,0.117 6.199,-1.085 0.969,-1.162 2.713,1.551 2.17,3.139 -0.542,1.628 -0.31,4.224 -2.402,8.332 -2.053,4.107 -3.371,5.308 -5.734,4.882 -2.402,-0.465 -2.325,-2.17 -4.146,-6.2 -1.86,-3.991 -2.79,-5.851 -1.55,-7.014 0,0 1.008,-2.054 5.463,-2.054 z m 76.91,-26.272 c 2.286,0.387 4.457,5.541 6.087,8.137 1.62,2.674 5.03,3.411 5.77,6.007 0.77,2.596 1.43,2.053 2.94,3.255 1.55,1.162 1.32,3.371 0.66,5.308 -0.66,1.938 -7.63,10.579 -8.83,8.642 -1.16,-1.938 -0.66,-3.682 -2.4,-5.309 -1.748,-1.589 -3.026,-2.364 -2.058,-3.875 0.969,-1.55 4.258,-3.255 3.368,-6.82 -0.85,-3.565 -3.484,-4.728 -4.879,-7.169 -1.433,-2.441 -1.937,-5.812 -1.937,-5.812 0,-0.31 -1.007,-2.829 1.279,-2.364 z m 1.937,28.559 c 2.87,2.247 4.61,2.48 3.1,5.425 a 31.16,31.16 0 0 1 -6.587,8.292 c -1.395,0.853 -2.48,0 -2.364,2.829 0.117,2.79 -4.804,9.959 -7.516,10.385 -2.712,0.387 -9.221,-1.744 -6.858,-7.246 2.402,-5.541 9.57,-6.82 10.461,-9.3 0.853,-2.519 1.318,-2.596 2.712,-4.34 1.434,-1.744 2.829,-5.193 2.829,-5.193 0,0 1.433,-3.138 4.262,-0.852 z M 944.613,418.575 c 1.007,-0.078 2.596,1.899 5.579,3.604 2.983,1.705 5.812,3.836 7.904,4.843 2.015,1.008 4.533,1.861 4.843,3.798 0.349,1.938 4.882,6.394 1.938,6.51 -2.945,0.078 -4.262,1.279 -5.735,-2.054 -1.511,-3.293 -2.828,-3.681 -4.882,-5.735 -2.053,-2.092 -4.92,-2.054 -6.121,-3.758 -1.163,-1.706 -4.34,-3.914 -4.34,-3.914 0,0 -0.194,-3.217 0.814,-3.294 z m -73.5,-140.198 c 1.627,-2.79 3.758,-7.633 6.354,-8.292 2.596,-0.659 8.33,0.155 10.926,-2.286 2.596,-2.403 10.113,-9.417 11.081,-13.602 1.008,-4.262 -0.155,-15.422 1.318,-16.275 1.472,-0.775 4.068,-1.085 4.417,-3.061 0.31,-1.937 0.968,-5.192 2.596,-5.657 0.774,-0.233 1.588,0.93 2.712,2.053 1.278,1.357 2.944,2.713 5.114,1.822 4.107,-1.628 4.727,-1.434 6.548,-2.713 1.782,-1.317 -0.814,3.875 -2.325,6.471 -1.433,2.597 -2.402,7.75 -7.477,7.13 -5.037,-0.658 -7.013,-2.945 -6.665,-0.348 0.31,2.596 1.628,2.596 1.628,7.982 0,5.348 -4.262,5.503 -4.107,10.385 0.193,4.844 2.634,9.068 -3.759,12.013 -6.354,2.906 -21.852,2.712 -22.317,5.657 -0.504,2.906 -1.472,6.51 -4.107,5.696 0,0 -3.565,-4.262 -1.937,-6.975 z M 893.74,68.972 c -1.55,-2.518 -2.635,-8.214 0.697,-8.64 3.371,-0.388 6.316,1.937 11.082,1.278 4.765,-0.697 6.703,0.116 7.71,2.209 0.969,2.092 1.55,4.301 -1.55,5.308 -3.1,0.97 -7.981,0.272 -9.957,-0.154 0,0 -6.432,2.518 -7.982,0 z m 7.439,9.184 c -0.155,-2.325 -0.271,-5.425 2.519,-4.727 2.789,0.697 6.857,3.061 8.136,4.727 1.24,1.666 -0.116,3.643 -4.378,2.79 0,0 -6.161,-0.387 -6.277,-2.79 z M 922.877,64.09 c 3.215,-0.698 6.005,0.852 7.826,1.666 1.821,0.853 4.766,1.822 2.519,4.34 -2.209,2.48 -5.464,3.759 -6.316,2.093 -0.775,-1.666 -3.487,-2.945 -3.487,-2.945 0,0 -3.875,-0.582 -3.603,-1.822 0,0 -0.155,-2.635 3.099,-3.332 z m 93.953,25.769 c 2.64,-0.271 4.89,1.821 6.16,2.519 1.24,0.697 2.79,4.456 0,4.998 -2.79,0.543 -13.56,2.635 -11.77,-2.519 0,0 2.94,-4.727 5.61,-4.998 z M 758.092,29.409 c 2.093,-3.604 6.587,-4.573 9.919,-6.123 3.371,-1.55 6.858,0.698 8.137,3.488 1.278,2.79 5.037,3.642 5.734,6.277 0.697,2.635 0.155,6.975 -2.247,8.215 -2.364,1.24 -12.011,0.853 -13.445,-1.937 -1.395,-2.79 -5.424,-4.611 -5.424,-4.611 0,0 -4.766,-1.667 -2.712,-5.27 l 0.038,-0.04 z m 27.006,11.857 c 1.821,-3.758 4.068,-6.703 7.439,-5.037 3.332,1.705 7.555,5.192 5.889,7.401 -1.704,2.247 -0.581,1.938 -6.044,3.216 -5.424,1.24 -10.926,0 -11.469,-0.697 0,0 2.364,-1.124 4.185,-4.883 z m -16.506,10.54 c 2.093,-0.775 4.456,-1.356 4.766,0.736 0.271,2.093 -1.705,2.52 -4.068,2.79 0,0 -2.79,-2.712 -0.698,-3.526 z m -138.824,55.258 c 1.162,-2.79 8.524,-3.217 8.989,-1.977 0.542,1.24 -0.853,4.185 -1.744,4.844 -0.891,0.659 -4.262,0.93 -4.262,0.93 0,0 -4.146,-1.007 -2.983,-3.797 z m 99.885,266.367 c 0.62,4.728 -2.479,7.324 -4.765,7.324 -2.286,0 -2.093,-5.347 -1.279,-8.448 0.775,-3.099 0.659,-4.882 1.279,-5.696 0,0 4.107,2.132 4.765,6.82 z m 81.559,-45.57 c 3.1,-0.969 7.168,0 4.417,4.689 -2.789,4.727 -7.826,4.534 -7.516,0 0,0 0,-3.72 3.099,-4.689 z m 36.421,-16.74 c 0.155,2.287 -1.007,8.293 -2.983,9.417 -1.938,1.162 -4.727,0 -4.069,-3.875 0.659,-3.875 2.441,-7.944 4.069,-8.603 1.046,-0.388 2.789,0.775 2.944,3.1 z m -269.28,-22.707 c 3.603,-0.31 2.479,-0.775 7.516,-1.473 5.076,-0.62 7.672,-9.067 7.672,-13.291 0,-4.224 -0.465,-3.875 -1.473,-5.193 -0.968,-1.278 -0.31,0.814 -2.75,2.442 -1.318,0.891 -1.473,-0.62 -2.093,-2.132 -0.581,-1.278 -1.472,-2.557 -3.797,-2.402 -5.037,0.31 -5.54,4.689 -8.485,1.124 -2.945,-3.565 -4.882,-5.348 -7.362,-7.944 -2.402,-2.596 -2.092,-7.789 -4.223,-11.044 -2.092,-3.255 -2.751,2.093 -3.1,5.813 -0.31,3.758 3.1,4.069 3.1,6.045 0,1.937 -2.441,1.782 -2.596,4.378 -0.155,2.597 -4.572,2.442 -5.23,-1.317 -0.659,-3.72 -1.783,-4.689 -4.727,-7.285 -2.945,-2.596 -3.1,-3.565 -5.231,-8.293 -2.131,-4.688 -15.343,-17.67 -17.784,-17.05 -2.441,0.659 2.325,7.363 7.013,11.393 4.727,4.03 6.858,7.944 7.361,10.656 0.465,2.713 0,4.108 -1.472,6.2 -1.472,2.131 -3.255,4.263 -3.913,6.665 -0.659,2.441 -5.231,0.969 -6.045,-0.814 -0.813,-1.782 -2.789,-1.162 -2.944,-3.255 -0.078,-1.162 0.891,-1.046 2.518,-0.891 1.318,0.078 3.1,0.194 5.153,-0.387 4.572,-1.318 1.163,-1.628 0.969,-6.007 -0.155,-4.378 -5.851,-6.316 -8.64,-8.602 -2.751,-2.286 -5.386,-5.813 -9.299,-9.571 -3.875,-3.72 -4.572,0.775 -8.137,3.41 -3.603,2.596 -4.262,-1.473 -6.703,-1.473 -2.44,0 -3.099,3.41 -4.726,7.944 -1.628,4.534 -3.914,2.441 -6.355,3.565 -2.479,1.162 -1.317,8.448 -2.944,12.671 -1.628,4.224 -7.827,2.752 -9.803,5.696 -1.937,2.907 1.937,2.907 1.937,2.907 4.417,-1.938 7.866,-4.379 8.989,-6.317 0.775,-1.24 5.58,-0.968 10.074,-0.697 2.518,0.155 4.959,0.31 6.432,0.194 4.068,-0.31 11.236,-0.659 13.018,-0.775 1.821,-0.194 3.759,6.587 3.952,10.501 0.155,3.875 3.565,4.883 7.827,6.006 4.262,1.163 9.764,8.603 14.491,9.571 4.765,0.969 7.051,-5.502 9.144,-7.75 2.131,-2.325 7.012,1.589 10.461,4.031 3.409,2.441 8.64,3.099 12.243,2.751 z m 67.92,-35.65 c -1.821,-3.526 0.62,-1.512 2.712,-3.294 2.093,-1.783 -1.084,-3.1 -4.029,-4.379 -2.945,-1.279 -5.037,-7.75 -6.354,-9.726 -1.318,-1.938 3.099,-3.875 6.509,-4.883 3.448,-0.968 5.037,-4.223 2.944,-4.223 -2.131,0 -9.298,-4.379 -14.18,-1.783 -4.921,2.596 -3.952,7.983 -3.952,7.983 -0.31,7.285 5.734,12.632 7.516,16.236 1.783,3.604 -5.23,6.316 -3.409,11.625 1.782,5.386 10.073,5.231 13.561,3.759 3.409,-1.473 0.465,-7.789 -1.318,-11.315 z m -55.638,-10.579 c 4.882,-2.131 8.291,5.812 11.585,6.471 3.254,0.62 11.74,-4.844 9.299,-6.82 -2.48,-1.937 -11.43,-8.099 -14.22,-10.385 -2.751,-2.247 -6.199,-0.155 -8.795,0.504 -1.356,0.349 -2.519,-1.24 -3.875,-2.829 -1.24,-1.472 -2.634,-2.945 -4.455,-2.867 -3.759,0.193 -5.386,6.82 -7.168,12.012 -1.821,5.193 2.092,6.355 2.092,6.355 3.293,1.938 10.616,-0.349 15.498,-2.441 z m -50.292,-65.1 c -1.433,3.255 -6.664,5.037 -10.577,5.89 -3.913,0.814 -6.393,4.146 -5.889,4.534 3.099,2.247 8.02,1.433 13.56,0 a 19.728,19.728 0 0 1 6.51,-0.582 c 1.704,0.078 3.099,0.155 4.494,-0.581 2.867,-1.434 3.332,-8.137 4.805,-13.601 1.472,-5.541 3.254,-7.169 3.603,-8.603 0.31,-1.472 13.716,-2.286 15.149,-3.526 1.473,-1.279 1.821,-1.162 -2.596,-2.557 -4.417,-1.395 -6.703,1.356 -10.267,1.55 -3.604,0.155 -7.362,-6.045 -7.827,-8.913 -0.503,-2.945 5.037,-6.859 5.541,-10.424 0.465,-3.565 4.727,-5.347 6.354,-8.253 1.627,-2.945 -2.945,-3.41 -5.385,-3.41 -2.441,0 -3.255,3.216 -3.255,6.781 0,3.604 -3.603,3.914 -8.137,6.084 -4.61,2.208 -5.075,7.905 -5.075,10.152 0,2.286 3.409,4.534 4.068,7.944 0.659,3.41 -4.727,7.634 -5.386,10.734 -0.465,2.092 0.272,1.705 1.589,1.278 0.62,-0.193 1.356,-0.387 2.17,-0.31 2.596,0.155 -1.938,2.597 -3.449,5.813 z"
       fill="#ffffff"
       fill-opacity="0.2"
       id="path1" />
    <path
       d="m 898.893,538.625 c 0,-0.775 0.116,-1.55 0.349,-2.286 a 7.749,7.749 0 0 1 -9.981,-8.343 7.751,7.751 0 0 1 6.753,-6.754 7.745,7.745 0 0 1 8.18,4.932 7.758,7.758 0 0 1 0.162,5.05 7.747,7.747 0 0 1 4.727,0.039 7.746,7.746 0 0 1 9.95,5.586 7.753,7.753 0 0 1 -0.186,4.217 7.758,7.758 0 0 1 -10.841,9.374 7.755,7.755 0 0 1 -3.882,-4.491 7.755,7.755 0 0 1 -5.231,-7.324 z M 653.828,312.906 a 7.737,7.737 0 0 1 -0.348,2.286 7.754,7.754 0 0 1 5.802,0.512 7.755,7.755 0 0 1 3.807,4.41 7.731,7.731 0 0 1 2.363,1.279 7.753,7.753 0 0 1 10.172,0.409 7.756,7.756 0 0 1 1.994,3.078 7.743,7.743 0 0 1 8.235,2.343 7.753,7.753 0 0 1 -2.011,11.754 7.752,7.752 0 0 1 -8.545,-0.528 7.747,7.747 0 0 1 -2.638,-3.61 7.752,7.752 0 0 1 -7.207,-1.357 7.745,7.745 0 0 1 -10.098,-0.317 7.747,7.747 0 0 1 -2.029,-3.015 7.75,7.75 0 1 1 -9.958,-9.998 7.729,7.729 0 0 1 -2.862,-1.858 7.737,7.737 0 0 1 -1.787,-2.908 c -3.022,-1.007 -5.231,-15.539 -5.231,-18.949 0.006,-0.803 0.137,-1.6 0.388,-2.363 A 7.75,7.75 0 0 1 636.393,279 c 4.262,0 7.749,15.112 7.749,19.375 a 7.782,7.782 0 0 1 -0.387,2.364 7.744,7.744 0 0 1 4.804,4.843 7.752,7.752 0 0 1 5.269,7.324 z m 349.682,239.281 a 7.794,7.794 0 0 1 -3.25,-0.721 7.767,7.767 0 0 1 -4.198,-4.947 7.758,7.758 0 0 1 3.437,-8.703 7.783,7.783 0 0 1 3.141,-1.078 7.784,7.784 0 0 1 3.31,0.337 7.724,7.724 0 0 1 3.61,-0.295 7.72,7.72 0 0 1 3.35,1.38 c 0.99,0.718 1.8,1.662 2.36,2.753 0.55,1.091 0.85,2.299 0.85,3.524 0,1.226 -0.3,2.434 -0.85,3.525 a 7.806,7.806 0 0 1 -2.36,2.753 7.72,7.72 0 0 1 -3.35,1.38 7.724,7.724 0 0 1 -3.61,-0.295 c -0.79,0.259 -1.62,0.39 -2.44,0.387 z M 318.681,518.281 a 7.746,7.746 0 0 1 6.494,-7.708 7.747,7.747 0 0 1 8.617,5.228 7.75,7.75 0 1 1 -9.842,9.804 7.746,7.746 0 0 1 -5.269,-7.324 z m 283.81,-110.437 a 7.745,7.745 0 0 1 2.733,-5.887 7.756,7.756 0 0 1 6.252,-1.743 7.74,7.74 0 0 1 3.089,1.221 7.74,7.74 0 0 1 3.373,5.545 7.746,7.746 0 0 1 -0.337,3.305 7.753,7.753 0 0 1 -1.084,6.965 7.756,7.756 0 0 1 -6.277,3.205 7.751,7.751 0 0 1 -7.362,-10.17 7.728,7.728 0 0 1 -0.387,-2.441 z m 184.04,-15.5 a 7.75,7.75 0 0 1 15.072,-2.558 7.76,7.76 0 0 1 6.927,1.141 7.757,7.757 0 0 1 3.163,6.268 7.752,7.752 0 0 1 -10.128,7.355 7.748,7.748 0 0 1 -9.764,-4.883 7.744,7.744 0 0 1 -5.27,-7.323 z m -85.239,-65.875 a 7.745,7.745 0 0 1 2.733,-5.887 7.752,7.752 0 0 1 11.636,1.88 7.756,7.756 0 0 1 0.741,6.448 7.743,7.743 0 0 1 -3.838,9.322 7.747,7.747 0 0 1 -10.885,-9.322 7.728,7.728 0 0 1 -0.387,-2.441 z m 134.64,-44.563 a 7.752,7.752 0 0 1 4.184,-6.897 7.786,7.786 0 0 1 -8.601,-5.076 7.765,7.765 0 0 1 -4.65,0 7.755,7.755 0 0 1 -1.971,7.802 7.743,7.743 0 0 1 -7.831,1.846 7.747,7.747 0 0 1 -9.299,-3.797 l 0.077,1.278 a 7.746,7.746 0 0 1 -6.857,7.668 7.75,7.75 0 1 1 6.005,-11.233 7.757,7.757 0 0 1 5.276,-8.645 7.75,7.75 0 0 1 3.635,-0.267 7.748,7.748 0 0 1 -4.159,-7.469 7.754,7.754 0 0 1 5.244,-6.752 7.754,7.754 0 0 1 9.783,-4.941 7.75,7.75 0 0 1 4.94,9.784 7.756,7.756 0 0 1 4.766,4.767 7.745,7.745 0 0 1 9.751,4.335 7.75,7.75 0 0 1 -3.823,9.963 7.759,7.759 0 0 1 7.165,2.598 7.75,7.75 0 0 1 1.475,7.477 7.744,7.744 0 0 1 0,4.844 7.748,7.748 0 0 1 -4.649,9.688 7.747,7.747 0 0 1 4.649,4.766 7.747,7.747 0 0 1 4.953,9.477 7.748,7.748 0 0 1 -14.794,0.327 7.754,7.754 0 0 1 -5.277,-7.222 7.75,7.75 0 0 1 5.045,-7.387 7.747,7.747 0 0 1 -4.65,-9.688 7.755,7.755 0 0 1 0,-4.843 7.758,7.758 0 0 1 -0.387,-2.403 z m 61.024,-11.625 a 7.77,7.77 0 0 1 -2.286,-0.348 7.749,7.749 0 1 1 -5.115,-5.116 7.76,7.76 0 0 1 1.971,-7.802 7.751,7.751 0 0 1 7.832,-1.846 7.737,7.737 0 0 1 3.612,-0.295 7.738,7.738 0 0 1 5.709,4.133 7.751,7.751 0 0 1 -5.709,11.182 7.763,7.763 0 0 1 -3.612,-0.295 7.747,7.747 0 0 1 -2.402,0.387 z M 489.277,251.216 a 7.743,7.743 0 0 1 2.541,-7.104 7.757,7.757 0 0 1 7.378,-1.576 7.75,7.75 0 0 1 4.843,-9.61 7.75,7.75 0 0 1 0,-4.65 7.747,7.747 0 0 1 -9.783,-4.94 7.751,7.751 0 0 1 4.94,-9.785 7.748,7.748 0 0 1 -0.233,-3.642 7.749,7.749 0 0 1 -14.219,-1.085 7.75,7.75 0 0 1 -4.766,-4.65 7.75,7.75 0 1 1 0,-5.387 7.744,7.744 0 0 1 3.681,-4.184 7.752,7.752 0 0 1 -3.802,-14.978 7.744,7.744 0 0 1 9.609,4.286 7.748,7.748 0 0 1 -3.521,9.916 7.792,7.792 0 0 1 8.601,5.193 7.757,7.757 0 0 1 4.766,4.65 7.744,7.744 0 0 1 7.372,-5.064 7.748,7.748 0 0 1 7.235,5.258 7.76,7.76 0 0 1 2.986,1.857 7.76,7.76 0 0 1 1.857,2.986 7.754,7.754 0 0 1 4.843,4.767 7.739,7.739 0 0 1 4.727,0 7.748,7.748 0 0 1 3.758,-4.34 7.786,7.786 0 0 1 -8.601,-5.077 7.749,7.749 0 0 1 -9.339,-10.856 7.747,7.747 0 0 1 4.496,-3.868 7.744,7.744 0 0 1 1.278,-2.364 7.762,7.762 0 0 1 -1.543,-6.459 7.749,7.749 0 0 1 4.023,-5.282 7.754,7.754 0 0 1 -8.825,-5.731 7.746,7.746 0 0 1 5.023,-9.247 7.747,7.747 0 0 1 9.61,4.286 7.753,7.753 0 0 1 -3.522,9.916 l 1.279,-0.077 a 7.748,7.748 0 0 1 7.694,8.63 7.758,7.758 0 0 1 -1.65,3.964 7.746,7.746 0 0 1 1.356,7.207 7.746,7.746 0 0 1 5.2,6.778 7.751,7.751 0 0 1 -4.193,7.443 7.792,7.792 0 0 1 8.602,5.154 7.75,7.75 0 0 1 4.843,4.766 7.75,7.75 0 0 1 9.764,9.765 7.76,7.76 0 0 1 4.727,4.65 7.75,7.75 0 0 1 9.531,-4.727 7.755,7.755 0 0 1 4.797,-9.572 7.744,7.744 0 0 1 3.882,-0.348 7.751,7.751 0 0 1 0.444,-13.941 7.747,7.747 0 0 1 9.966,3.379 7.75,7.75 0 0 1 -8.124,11.337 7.752,7.752 0 0 1 -0.315,13.757 7.746,7.746 0 0 1 -5.497,0.503 7.748,7.748 0 0 1 -4.882,9.61 7.748,7.748 0 0 1 0.233,3.642 7.75,7.75 0 1 1 -0.775,2.287 7.744,7.744 0 0 1 -4.378,3.758 7.747,7.747 0 0 1 -3.759,4.418 7.752,7.752 0 0 1 8.124,11.337 7.748,7.748 0 0 1 -14.111,-6.293 7.746,7.746 0 0 1 3.701,-4.269 l -1.278,0.077 a 7.75,7.75 0 0 1 -3.565,-14.647 7.75,7.75 0 0 1 -8.911,-8.913 7.748,7.748 0 1 1 -12.941,-8.408 7.748,7.748 0 0 1 -1.201,-2.132 7.752,7.752 0 0 1 -9.648,4.651 7.75,7.75 0 0 1 -1.278,2.324 7.757,7.757 0 0 1 0.359,9.257 7.745,7.745 0 0 1 -8.767,2.988 7.75,7.75 0 0 1 -9.609,4.844 7.75,7.75 0 0 1 -14.297,5.813 l 0.116,1.317 a 7.748,7.748 0 0 1 -15.111,2.48 7.744,7.744 0 0 1 -4.952,-9.477 7.748,7.748 0 0 1 14.794,-0.327 7.755,7.755 0 0 1 4.417,3.759 z m -355.605,-1.279 a 7.754,7.754 0 0 1 7.707,6.495 7.75,7.75 0 0 1 -5.228,8.618 7.737,7.737 0 0 1 -1.508,2.621 7.737,7.737 0 0 1 -5.315,2.632 7.748,7.748 0 0 1 -7.861,-10.213 7.743,7.743 0 0 1 1.89,-7.874 7.753,7.753 0 0 1 7.874,-1.891 7.748,7.748 0 0 1 2.441,-0.388 z m 422.712,-72.113 a 7.766,7.766 0 0 1 -3.252,-2.138 7.76,7.76 0 0 1 -1.701,-7.34 7.745,7.745 0 0 1 5.337,-5.317 7.75,7.75 0 0 1 9.457,4.991 7.749,7.749 0 0 1 4.805,4.65 7.749,7.749 0 1 1 9.335,10.129 7.747,7.747 0 0 1 -8.948,-3.929 7.789,7.789 0 0 1 -1.627,6.161 7.75,7.75 0 0 1 1.356,7.208 7.744,7.744 0 0 1 5.161,6.831 7.753,7.753 0 0 1 -4.28,7.416 7.748,7.748 0 0 1 -10.839,-9.287 7.744,7.744 0 0 1 -4.893,-5.181 7.757,7.757 0 0 1 1.406,-6.987 7.746,7.746 0 0 1 -1.356,-7.207 z M 363.199,503.75 a 7.75,7.75 0 1 1 -6.47,-7.634 7.749,7.749 0 0 1 1.007,-14.221 7.756,7.756 0 0 1 7.676,-10.124 7.758,7.758 0 0 1 4.568,1.715 7.748,7.748 0 0 1 11.407,10.173 7.745,7.745 0 0 1 -11.407,1.917 7.736,7.736 0 0 1 -2.325,1.279 7.753,7.753 0 0 1 -1.522,7.418 7.743,7.743 0 0 1 -7.118,2.579 7.753,7.753 0 0 1 4.184,6.898 z m 316.744,-33.906 a 7.748,7.748 0 0 1 6.686,11.769 7.75,7.75 0 0 1 -4.206,3.343 7.76,7.76 0 0 1 -5.587,5.055 7.758,7.758 0 0 1 -7.24,-2.081 7.754,7.754 0 0 1 -0.236,-10.691 7.742,7.742 0 0 1 3.26,-2.125 7.753,7.753 0 0 1 7.323,-5.27 z m -419.38,-87.188 c 0,-0.775 0.116,-1.55 0.348,-2.286 a 7.752,7.752 0 0 1 -8.924,-3.402 7.753,7.753 0 0 1 5.697,-11.695 7.745,7.745 0 0 1 8.179,4.933 7.749,7.749 0 0 1 0.163,5.049 7.753,7.753 0 0 1 9.609,4.921 7.743,7.743 0 0 1 5.09,5.572 7.754,7.754 0 0 1 -5.424,9.235 7.754,7.754 0 0 1 -7.345,-1.733 7.754,7.754 0 0 1 -2.124,-3.27 7.746,7.746 0 0 1 -5.269,-7.324 z m 531.78,-31 c 0,-0.426 0,-0.852 0.116,-1.279 a 7.747,7.747 0 0 1 -13.939,-0.444 7.752,7.752 0 0 1 8.984,-10.668 7.748,7.748 0 0 1 5.73,8.826 7.749,7.749 0 0 1 14.181,1.085 7.752,7.752 0 0 1 5.003,9.47 7.748,7.748 0 0 1 -14.805,0.334 7.749,7.749 0 0 1 -5.27,-7.324 z m -59.087,-8.719 a 7.747,7.747 0 0 1 7.667,6.858 7.753,7.753 0 0 1 -5.896,8.43 7.748,7.748 0 0 1 -9.022,-10.352 7.748,7.748 0 0 1 3.687,-4.083 7.748,7.748 0 0 1 -3.802,-14.977 7.747,7.747 0 0 1 9.79,9.933 7.751,7.751 0 0 1 -3.702,4.269 z m -550.184,-8.718 c 0,-4.263 -0.388,-11.625 3.874,-11.625 3.41,0 10.191,6.083 11.237,9.145 a 7.744,7.744 0 0 1 4.952,9.477 7.754,7.754 0 0 1 -5.337,5.317 7.745,7.745 0 0 1 -9.457,-4.991 7.744,7.744 0 0 1 -5.269,-7.323 z m 626.707,-21.313 a 7.746,7.746 0 0 1 7.284,5.038 7.746,7.746 0 0 1 3.681,-4.185 7.75,7.75 0 0 1 -8.641,-10.075 7.752,7.752 0 0 1 4.805,-9.727 7.746,7.746 0 0 1 14.095,-6.224 7.753,7.753 0 0 1 -0.528,8.546 7.742,7.742 0 0 1 -3.61,2.638 7.755,7.755 0 0 1 -0.038,4.767 7.756,7.756 0 0 1 -3.797,9.3 l 1.278,-0.078 a 7.752,7.752 0 0 1 6.334,12.179 7.751,7.751 0 0 1 -11.167,1.649 7.749,7.749 0 0 1 -2.451,-3.365 7.747,7.747 0 0 1 -9.609,4.65 7.75,7.75 0 1 1 -4.959,-9.92 7.749,7.749 0 0 1 7.323,-5.193 z M 262.5,310.969 a 7.75,7.75 0 0 1 -11.768,6.686 7.747,7.747 0 0 1 -3.343,-4.206 7.752,7.752 0 0 1 -4.882,-9.688 7.748,7.748 0 0 1 -4.843,-9.687 7.751,7.751 0 0 1 -4.843,-9.61 7.75,7.75 0 0 1 -4.998,-14.648 7.744,7.744 0 0 1 -4.611,-4.727 7.759,7.759 0 0 1 -4.203,0.165 7.757,7.757 0 0 1 -5.725,-5.727 7.75,7.75 0 0 1 0.164,-4.203 7.753,7.753 0 0 1 -4.138,-11.185 7.755,7.755 0 0 1 7.664,-3.817 7.748,7.748 0 0 1 6.432,10.042 7.76,7.76 0 0 1 4.766,4.766 7.747,7.747 0 0 1 9.26,3.875 7.781,7.781 0 0 1 0.232,-3.681 7.76,7.76 0 0 1 -4.998,-5.544 7.756,7.756 0 0 1 5.293,-9.192 7.75,7.75 0 0 1 9.508,4.699 7.753,7.753 0 0 1 6.811,-5.07 7.754,7.754 0 0 1 7.37,4.218 7.752,7.752 0 0 1 4.089,-8.175 7.75,7.75 0 1 1 2.265,14.53 7.754,7.754 0 0 1 3.681,4.185 7.743,7.743 0 0 1 4.804,-4.65 7.751,7.751 0 0 1 9.686,-4.883 7.75,7.75 0 0 1 3.759,-4.339 7.8,7.8 0 0 1 -3.681,-0.272 7.737,7.737 0 0 1 -3.612,0.295 7.748,7.748 0 0 1 -5.709,-11.182 7.756,7.756 0 0 1 5.709,-4.133 7.763,7.763 0 0 1 3.612,0.295 7.751,7.751 0 0 1 9.608,4.358 7.748,7.748 0 0 1 -3.641,9.902 7.748,7.748 0 0 1 8.455,4.777 7.765,7.765 0 0 1 0.531,3.428 7.747,7.747 0 0 1 -10.071,6.83 7.745,7.745 0 0 1 -4.843,4.766 7.754,7.754 0 0 1 -4.844,4.844 7.744,7.744 0 0 1 -1.278,2.364 7.741,7.741 0 0 1 1.564,6.061 7.74,7.74 0 0 1 -1.16,2.981 7.737,7.737 0 0 1 -5.248,3.411 7.756,7.756 0 0 1 -6.057,-1.581 7.74,7.74 0 0 1 -2.04,-2.463 7.752,7.752 0 0 1 -5.19,8.648 7.745,7.745 0 0 1 -9.34,-3.805 7.784,7.784 0 0 1 -4.92,8.525 7.744,7.744 0 0 1 2.131,1.241 7.752,7.752 0 0 1 6.288,-1.516 7.734,7.734 0 0 1 5.247,3.782 7.747,7.747 0 0 1 -3.98,11.063 7.751,7.751 0 0 1 5.037,7.247 z m 456.227,-21.313 a 7.747,7.747 0 0 1 7.364,5.326 7.747,7.747 0 0 1 -2.758,8.659 7.742,7.742 0 0 1 -9.087,0.086 7.747,7.747 0 0 1 -2.919,-8.607 7.746,7.746 0 0 1 -7.809,-1.94 7.755,7.755 0 0 1 -1.878,-7.825 7.751,7.751 0 0 1 3.526,-15.001 7.75,7.75 0 0 1 6.432,10.041 7.751,7.751 0 0 1 4.843,9.61 7.738,7.738 0 0 1 2.286,-0.349 z m -119.026,3.216 c -0.2,-1.19 -0.12,-2.41 0.233,-3.564 a 7.754,7.754 0 0 1 -3.565,0.232 7.752,7.752 0 0 1 3.332,3.332 z m -9.802,-10.966 a 7.747,7.747 0 0 1 15.071,-2.557 7.742,7.742 0 0 1 7.866,1.922 7.744,7.744 0 0 1 1.86,7.881 7.751,7.751 0 0 1 -10.017,9.845 7.753,7.753 0 0 1 -4.242,-3.838 7.752,7.752 0 0 1 -8.835,8.945 7.75,7.75 0 1 1 2.481,-15.3 7.757,7.757 0 0 1 -4.184,-6.898 z m -378.737,6.781 a 7.747,7.747 0 0 1 7.667,6.858 7.753,7.753 0 0 1 -5.896,8.43 7.747,7.747 0 0 1 -9.07,-4.85 7.748,7.748 0 0 1 3.735,-9.585 7.748,7.748 0 0 1 -3.802,-14.977 7.744,7.744 0 0 1 9.61,4.286 7.751,7.751 0 0 1 -3.522,9.916 z m 40.799,-10.346 a 7.755,7.755 0 0 1 2.542,-7.104 7.747,7.747 0 0 1 7.377,-1.576 7.75,7.75 0 0 1 0,-4.65 7.739,7.739 0 0 1 -2.286,-1.279 7.744,7.744 0 0 1 -9.686,0 7.752,7.752 0 0 1 -6.122,1.589 7.754,7.754 0 0 1 3.836,9.261 7.754,7.754 0 0 1 4.339,3.759 z m -100.854,3.565 a 7.754,7.754 0 0 1 -6.494,7.709 7.747,7.747 0 0 1 -8.617,-5.229 7.744,7.744 0 0 1 -4.952,-9.477 7.748,7.748 0 0 1 14.794,-0.327 7.755,7.755 0 0 1 4.417,3.759 7.786,7.786 0 0 1 0.232,-3.642 7.748,7.748 0 0 1 -5.161,-6.832 7.748,7.748 0 0 1 8.686,-8.17 7.746,7.746 0 0 1 6.502,5.571 7.763,7.763 0 0 1 -0.069,4.471 7.746,7.746 0 0 1 4.989,9.075 7.758,7.758 0 0 1 -4.772,5.477 7.751,7.751 0 0 1 -9.671,-3.702 z m 89.114,-17.437 c 0.427,0 0.853,0 1.279,0.116 a 7.749,7.749 0 0 1 -3.332,-3.333 7.78,7.78 0 0 1 -0.233,3.565 7.775,7.775 0 0 1 2.286,-0.348 z m 22.163,-17.748 a 7.794,7.794 0 0 1 -0.233,3.565 7.754,7.754 0 0 1 3.565,-0.232 7.749,7.749 0 0 1 -3.332,-3.333 z m -116.12,-22.94 a 7.749,7.749 0 1 1 -10.306,-7.324 7.75,7.75 0 0 1 1.356,-7.207 7.753,7.753 0 0 1 -0.943,-8.202 7.752,7.752 0 0 1 6.987,-4.398 7.748,7.748 0 0 1 7.698,8.635 7.743,7.743 0 0 1 -1.654,3.965 7.755,7.755 0 0 1 1.406,6.987 7.74,7.74 0 0 1 -4.893,5.18 c 0.233,0.775 0.349,1.55 0.349,2.364 z m 291.559,-79.437 a 7.752,7.752 0 0 1 -5.48,-13.23 7.75,7.75 0 1 1 5.48,13.23 z m 106.55,43.593 a 7.7505,7.7505 0 1 1 -0.001,-15.501 7.7505,7.7505 0 0 1 0.001,15.501 z m -347.74,14.532 a 7.752,7.752 0 0 1 -5.48,-13.23 7.75,7.75 0 1 1 5.48,13.23 z m 405.858,0 a 7.752,7.752 0 0 1 -5.48,-13.23 7.75,7.75 0 1 1 5.48,13.23 z m -430.074,4.843 a 7.748,7.748 0 0 1 -5.479,-13.23 7.75,7.75 0 1 1 5.479,13.23 z M 220.849,217 a 7.752,7.752 0 0 1 -5.48,-13.23 7.752,7.752 0 0 1 10.959,0 7.752,7.752 0 0 1 -5.479,13.23 z m 338.053,4.844 a 7.75,7.75 0 1 1 0.002,-15.499 7.75,7.75 0 0 1 -0.002,15.499 z m 221.818,4.843 a 7.7490001,7.7490001 0 1 1 -0.003,-15.498 7.7490001,7.7490001 0 0 1 0.003,15.498 z m -550.185,14.532 a 7.75,7.75 0 1 1 0.002,-15.499 7.75,7.75 0 0 1 -0.002,15.499 z m 619.926,8.718 a 7.748,7.748 0 0 1 -5.479,-13.23 7.75,7.75 0 1 1 5.479,13.23 z m -682.887,5.813 a 7.75,7.75 0 1 1 5.479,-13.23 7.752,7.752 0 0 1 -5.479,13.23 z m 19.372,4.844 a 7.75,7.75 0 1 1 0.002,-15.499 7.75,7.75 0 0 1 -0.002,15.499 z m 347.74,-6.782 a 7.748,7.748 0 0 1 -5.479,-13.23 7.75,7.75 0 1 1 5.479,13.23 z m 116.236,23.25 a 7.748,7.748 0 0 1 -5.479,-13.23 7.75,7.75 0 1 1 5.479,13.23 z m 214.069,-7.75 a 7.752,7.752 0 0 1 -5.48,-2.269 7.753,7.753 0 0 1 5.48,-13.231 7.75,7.75 0 0 1 0,15.5 z m -233.441,0.969 a 7.75,7.75 0 1 1 0,-15.498 7.75,7.75 0 0 1 0,15.498 z m -164.668,4.844 a 7.75,7.75 0 1 1 5.479,-13.23 7.747,7.747 0 0 1 0,10.96 7.75,7.75 0 0 1 -5.479,2.27 z m 4.843,19.375 a 7.75,7.75 0 1 1 0.002,-15.499 7.75,7.75 0 0 1 -0.002,15.499 z m 318.681,4.844 a 7.752,7.752 0 0 1 -5.48,-13.23 7.75,7.75 0 1 1 5.48,13.23 z m -46.495,14.531 a 7.75,7.75 0 1 1 0.002,-15.499 7.75,7.75 0 0 1 -0.002,15.499 z m -547.278,4.844 a 7.752,7.752 0 0 1 -5.48,-13.23 7.75,7.75 0 1 1 5.48,13.23 z m 496.909,0.968 a 7.748,7.748 0 0 1 -5.479,-13.23 7.75,7.75 0 1 1 5.479,13.23 z m 159.825,37.782 a 7.75,7.75 0 1 1 0.002,-15.499 7.75,7.75 0 0 1 -0.002,15.499 z m -560.839,13.562 a 7.746,7.746 0 0 1 -7.749,-7.75 7.752,7.752 0 0 1 7.749,-7.75 7.75,7.75 0 0 1 0,15.5 z m 327.398,-3.875 a 7.7500001,7.7500001 0 1 1 0.002,-15.5 7.7500001,7.7500001 0 0 1 -0.002,15.5 z M 863.054,372 a 7.75,7.75 0 1 1 0,-15.5 7.75,7.75 0 0 1 0,15.5 z m -137.547,10.656 a 7.7500001,7.7500001 0 1 1 0.002,-15.5 7.7500001,7.7500001 0 0 1 -0.002,15.5 z m -223.754,3.875 a 7.75,7.75 0 1 1 0,-15.498 7.75,7.75 0 0 1 0,15.498 z m -243.128,23.25 a 7.7500001,7.7500001 0 1 1 0.002,-15.5 7.7500001,7.7500001 0 0 1 -0.002,15.5 z m 130.766,14.531 a 7.748,7.748 0 0 1 -5.479,-13.23 7.75,7.75 0 1 1 5.479,13.23 z m 146.264,18.407 a 7.75,7.75 0 1 1 0.002,-15.499 7.75,7.75 0 0 1 -0.002,15.499 z m -272.186,5.812 a 7.746,7.746 0 0 1 -7.749,-7.75 7.752,7.752 0 0 1 7.749,-7.75 7.75,7.75 0 0 1 0,15.5 z m 319.649,56.188 a 7.75,7.75 0 1 1 0.002,-15.499 7.75,7.75 0 0 1 -0.002,15.499 z m 9.686,14.531 a 7.75,7.75 0 1 1 0.002,-15.499 7.75,7.75 0 0 1 -0.002,15.499 z m 357.427,-11.625 a 7.75,7.75 0 1 1 0,-15.5 7.75,7.75 0 0 1 0,15.5 z m -396.172,26.156 a 7.745,7.745 0 0 1 -5.479,-2.27 7.746,7.746 0 0 1 0,-10.96 7.75,7.75 0 1 1 5.479,13.23 z m 275.092,-11.625 a 7.7500001,7.7500001 0 1 1 0.002,-15.5 7.7500001,7.7500001 0 0 1 -0.002,15.5 z m -536.623,3.875 a 7.746,7.746 0 0 1 -7.749,-7.75 7.752,7.752 0 0 1 7.749,-7.75 7.75,7.75 0 0 1 0,15.5 z m 643.173,10.656 a 7.748,7.748 0 0 1 -5.479,-13.23 7.75,7.75 0 1 1 5.479,13.23 z m 43.589,-13.562 a 7.75,7.75 0 1 1 0,-15.5 7.75,7.75 0 0 1 0,15.5 z m 14.529,14.531 a 7.7500001,7.7500001 0 1 1 0.002,-15.5 7.7500001,7.7500001 0 0 1 -0.002,15.5 z"
       fill="url(#b)"
       fill-opacity="0.6"
       id="path2" />
  </g>
  <defs
     id="defs3">
    <linearGradient
       id="b"
       x1="899.579"
       y1="128.844"
       x2="698.2"
       y2="709.776"
       gradientUnits="userSpaceOnUse">
      <stop
         stop-color="#FAAE40"
         id="stop2" />
      <stop
         offset="1"
         stop-color="#F38020"
         id="stop3" />
    </linearGradient>
    <clipPath
       id="a">
      <path
         fill="#fff"
         d="M0 0h1050v620H0z"
         id="path3" />
    </clipPath>
    <filter
       style="color-interpolation-filters:sRGB;"
       inkscape:label="Invert"
       id="filter1"
       x="0"
       y="0"
       width="1"
       height="1">
      <feColorMatrix
         values="-1 0 0 0 1 0 -1 0 0 1 0 0 -1 0 1 0.21 0.72 0.07 0.496994 0 "
         result="color2"
         id="feColorMatrix1" />
    </filter>
  </defs>
</svg>
